<svg width="182" height="60" viewBox="0 0 182 60" fill="none" xmlns="http://www.w3.org/2000/svg">
    <g clip-path="url(#clip0_7938_49328)">
        <path
            d="M177.957 12.9461H178.579C178.89 12.9461 179.512 12.9461 179.512 12.3859C179.512 12.1992 179.45 12.0125 179.201 11.888C179.077 11.8257 178.89 11.8257 178.455 11.8257H177.957V12.9461ZM178.579 11.2033C179.015 11.2033 179.326 11.2033 179.574 11.3278C180.01 11.5145 180.259 11.888 180.259 12.3237C180.259 12.6349 180.134 13.1328 179.388 13.3195C179.761 13.5062 179.948 13.7552 180.01 14.1909C180.072 14.751 180.134 15.0622 180.321 15.4357H179.45C179.326 15.1867 179.326 15.0622 179.201 14.5021C179.077 13.6307 179.015 13.5062 177.957 13.5062V15.4357H177.211V11.2033H178.579ZM178.641 10.2697C176.962 10.2697 175.593 11.639 175.593 13.3195C175.593 15 176.962 16.3693 178.641 16.3693C180.383 16.3693 181.689 14.9378 181.689 13.3195C181.689 11.7012 180.383 10.2697 178.641 10.2697ZM178.641 16.7427C176.9 16.7427 175.282 15.3734 175.282 13.3817C175.282 11.39 176.838 10.0208 178.641 10.0208C180.445 10.0208 182 11.5145 182 13.3817C182 15.1867 180.57 16.7427 178.641 16.7427Z"
            fill="white" />
        <path
            d="M154.632 33.361H164.024C164.211 33.361 164.273 33.2365 164.273 33.0498L159.67 20.4149V20.3527C159.608 20.1037 159.545 19.917 159.421 19.917C159.297 19.917 159.172 20.0415 159.11 20.3527L154.445 32.9876C154.445 33.2365 154.507 33.361 154.632 33.361ZM170.057 48.4855C169.871 47.9253 169.622 47.1162 169.622 47.1162L165.517 36.2863C165.392 36.0374 165.268 35.9129 165.019 35.9129H153.636C153.45 35.9129 153.263 36.0374 153.201 36.3486L150.464 43.693C149.966 44.9378 149.718 45.9959 149.718 46.805C149.718 47.3029 149.842 47.6764 150.153 47.9876C150.464 48.2988 150.962 48.4232 151.77 48.4232H152.517C153.014 48.4232 153.263 48.5477 153.263 48.8589C153.263 49.2324 152.952 49.3569 152.392 49.3569C151.77 49.3569 150.837 49.3569 149.656 49.2946C148.349 49.2324 147.416 49.1701 146.981 49.1701C146.856 49.1701 146.483 49.1701 145.861 49.2324C145.364 49.2324 144.617 49.2324 143.684 49.2946C142.751 49.3569 141.818 49.3569 140.947 49.3569C140.325 49.3569 139.952 49.1701 139.952 48.8589C139.952 48.61 140.139 48.4232 140.574 48.4232C141.072 48.4232 141.632 48.361 142.191 48.2988C143.311 48.1743 144.12 47.7386 144.742 46.9917C145.364 46.2448 145.923 45.1867 146.545 43.693L159.359 11.5768C159.67 10.7676 159.919 10.2697 160.105 9.95851C160.292 9.64731 160.541 9.52283 160.789 9.52283C161.163 9.52283 161.598 10.083 162.033 11.1411C162.282 11.639 162.78 12.8838 163.589 14.8755L166.636 22.5934L171.55 34.7303L172.919 38.0913L174.785 42.5726C175.655 44.6266 176.402 45.9959 177.148 46.7427C177.833 47.4896 178.579 47.9253 179.325 48.112C180.01 48.2365 180.694 48.2988 181.502 48.2988C181.938 48.2988 182.187 48.4232 182.187 48.7344C182.187 48.9212 182.062 49.1079 181.751 49.1701C181.44 49.2324 180.818 49.2946 179.885 49.2946L175.033 49.1701C173.603 49.1701 172.11 49.2946 171.053 49.2946C170.431 49.2324 170.244 49.0457 170.057 48.4855Z"
            fill="white" />
        <path
            d="M107.483 29.8133C107.483 29.9378 107.483 33.4232 107.483 33.4232C107.421 34.4191 107.421 37.2199 107.421 40.2697V45.8714C107.421 46.556 107.359 46.9917 107.297 47.1784C107.235 47.3652 107.048 47.5519 106.737 47.7386C105.182 48.5477 103.316 49.1079 101.139 49.4813C98.8996 49.8548 96.7226 50.0415 94.4833 50.0415C91.2489 50.0415 88.201 49.6681 85.402 48.8589C82.603 48.0498 80.0527 46.8672 77.8757 45.249C75.6987 43.6307 74.0192 41.5145 72.7752 38.9627C71.5312 36.4108 70.9092 33.4232 70.9092 30.0622C70.9092 26.2656 71.7178 22.9046 73.4594 19.9793C75.1388 17.1162 77.2537 14.8755 79.8039 13.3195C82.0432 12.0125 84.2202 11.1411 86.3972 10.6432C88.5742 10.1452 90.9379 9.95851 93.5503 9.95851C94.4211 9.95851 95.292 9.95851 96.1628 10.0208C97.0336 10.083 97.9666 10.1452 98.8996 10.2697C99.8326 10.3942 100.641 10.4564 101.263 10.5809C101.885 10.6432 102.321 10.7676 102.569 10.8299C103.254 10.9544 103.938 11.0788 104.684 11.2033C105.431 11.3278 106.053 11.39 106.55 11.39C107.048 11.4523 107.235 11.639 107.235 12.0125C107.235 12.1369 107.235 12.3237 107.172 12.5726C107.11 13.3195 107.048 14.2531 106.986 15.3734C106.924 16.4938 106.861 18.1743 106.861 20.3527C106.861 21.0996 106.675 21.4108 106.302 21.4108C106.053 21.4108 105.866 21.1618 105.804 20.7261C105.68 19.917 105.555 19.1701 105.306 18.4855C105.058 17.8008 104.684 17.1162 104.062 16.4938C103.129 15.4979 101.699 14.6266 99.646 13.7552C97.5934 12.8838 95.292 12.5104 92.6795 12.5104C90.8135 12.5104 89.0719 12.6971 87.4546 13.0705C85.8374 13.444 84.2202 14.3154 82.603 15.6224C81.1101 16.8672 79.9283 18.5477 79.1197 20.5394C78.3111 22.5311 77.8757 25.083 77.8757 28.1328C77.8757 30.8714 78.3111 33.361 79.1197 35.7261C79.9283 38.0913 81.1723 40.1452 82.7274 41.8257C84.2824 43.5062 86.1484 44.8755 88.3877 45.8714C90.5647 46.805 92.9905 47.3029 95.6652 47.3029C96.5982 47.3029 97.469 47.2407 98.1532 47.1784C98.8374 47.1162 99.4594 46.9295 100.019 46.7427C100.641 46.4315 101.014 45.8091 101.014 44.8755V40.083C101.014 37.0954 101.014 34.3568 100.952 33.361C100.89 32.4896 100.766 31.805 100.455 31.3693C100.144 30.9336 99.5838 30.6224 98.7752 30.4357C98.402 30.3112 97.7178 30.3112 96.7848 30.3112C96.2872 30.3112 96.0384 30.1867 96.0384 29.8755C96.0384 29.5643 96.4116 29.3776 97.0958 29.3776C98.0288 29.3776 99.5838 29.3776 101.761 29.5021C103.254 29.5021 104.187 29.5643 104.498 29.5643C104.871 29.5643 105.804 29.5643 107.172 29.5021C107.421 29.4398 107.483 29.6888 107.483 29.8133Z"
            fill="white" />
        <path
            d="M123.407 34.4813V17.6764C123.407 16.556 123.344 15.5602 123.282 14.6888C123.158 13.0083 122.598 12.0747 121.541 11.8257C121.043 11.7012 120.421 11.639 119.737 11.639C119.177 11.639 118.928 11.4523 118.928 11.1411C118.928 10.8921 119.301 10.7054 120.172 10.7054C120.794 10.7054 122.038 10.7054 123.904 10.8299C125.335 10.8299 126.33 10.8921 126.828 10.8921C127.201 10.8921 128.072 10.8921 129.316 10.8299C131.057 10.7676 132.301 10.7054 133.048 10.7054C133.794 10.7054 134.105 10.8299 134.105 11.1411C134.105 11.4523 133.856 11.639 133.297 11.639C132.861 11.639 132.364 11.7012 131.742 11.7635C131.057 11.888 130.622 12.1992 130.311 12.6349C130.062 13.0705 129.876 13.7552 129.813 14.6888C129.751 15.5602 129.689 16.556 129.689 17.6764V34.4813C129.689 37.6556 129.689 40.0208 129.689 41.7013C129.689 43.3817 129.751 44.6888 129.876 45.6224C130 46.4315 130.187 46.9917 130.435 47.3652C130.684 47.7386 131.182 47.9876 131.928 48.112C132.301 48.1743 132.737 48.1743 133.234 48.2365C133.732 48.2988 134.167 48.2988 134.541 48.2988C135.1 48.2988 135.349 48.4232 135.349 48.7344C135.349 49.1079 135.038 49.2324 134.354 49.2324C132.923 49.2324 131.057 49.1701 128.756 49.1079C127.636 49.0457 126.89 49.0457 126.392 49.0457C126.144 49.0457 125.335 49.0457 123.967 49.1079C121.976 49.1701 120.67 49.2324 119.923 49.2324C119.177 49.2324 118.928 49.0457 118.928 48.7344C118.928 48.4855 119.177 48.2988 119.737 48.2988C120.359 48.2988 120.981 48.2365 121.541 48.112C122.349 47.9253 122.847 47.1162 123.033 45.5602C123.158 44.5643 123.22 43.2573 123.22 41.639C123.407 40.0208 123.407 37.5934 123.407 34.4813Z"
            fill="white" />
        <path
            d="M40.1196 31.4938C38.7512 27.1369 34.7081 23.9627 29.9187 23.9627C25.1292 23.9627 21.1483 27.1369 19.7799 31.4938C19.7799 31.4938 19.7799 31.4938 19.7799 31.4315C19.0335 27.7593 19.2201 24.3983 19.3445 22.5934H40.4928C40.7416 24.7095 40.866 28.0083 40.1196 31.4938ZM30.7273 43.5062V32.9875H39.7464C38.5024 37.0332 35.89 41.0788 30.7273 43.5062ZM29.2345 43.5685C24.3828 41.39 21.5215 38.029 20.1531 32.9875H29.2345V43.5685ZM22.5789 31.3071C22.5789 31.2448 22.5789 31.1826 22.5789 31.1826C22.7034 31.1203 22.8278 31.0581 22.89 30.9958C22.89 31.1203 22.89 31.3071 22.89 31.4938H22.5789C22.6411 31.3693 22.5789 31.3071 22.5789 31.3071ZM22.2057 28.444C22.0191 28.8797 21.8325 29.2531 21.7081 29.751C21.6459 29.8133 21.5837 29.8133 21.5837 29.8755C21.5837 29.8133 21.6459 29.751 21.5837 29.6888C21.5837 29.6266 21.6459 29.4398 21.6459 29.4398C21.5837 29.3776 21.5837 29.3153 21.5837 29.3153C21.5215 29.3153 21.5215 29.2531 21.5215 29.3153C21.5215 29.3153 21.5215 29.3153 21.4593 29.3153C21.5215 29.2531 21.5837 29.1286 21.5837 29.0041C21.8947 28.6929 21.9569 28.6307 22.2057 28.444ZM22.2057 29.4398C22.1435 29.5021 22.0191 29.5643 21.9569 29.5643C22.0191 29.2531 22.1435 29.0041 22.2679 28.6929C22.3301 28.7552 22.3923 28.8797 22.3301 29.0041C22.3301 29.0664 22.2057 29.1286 22.2057 29.1909C22.2057 29.3776 22.3301 29.3776 22.2057 29.4398ZM22.1435 30.1245C22.1435 30.1867 22.1435 30.1867 22.0813 30.1867C22.0191 30.1867 22.0191 30.249 22.0191 30.249H21.8947C21.8947 30.1245 21.9569 30 21.9569 29.8755C22.0191 29.8133 22.0813 29.8133 22.2057 29.751C22.2057 29.8133 22.2057 29.8755 22.2057 29.8755H22.2679L22.3301 29.9378H22.2679H22.2057L22.1435 30.1245ZM22.3923 28.1328C22.1435 28.2573 22.0191 28.3817 21.8947 28.444C22.0191 28.2573 22.1435 28.0705 22.3301 27.8838C22.3923 27.9461 22.4545 27.9461 22.4545 28.0083C22.4545 28.0705 22.3923 28.0705 22.3923 28.1328ZM22.89 30.6224C22.89 30.5602 22.9522 30.4979 23.0144 30.4357C23.0144 30.5602 23.0144 30.6846 23.0144 30.8091C22.9522 30.8091 22.9522 30.8714 22.89 30.8714C22.89 30.8091 22.89 30.7469 22.89 30.6224ZM23.4498 27.7593C23.3876 27.8838 23.3876 28.0083 23.3254 28.1328C23.2632 28.1328 23.201 28.1328 23.201 28.1328C23.201 28.1328 23.201 28.195 23.0766 28.2573H23.0144C23.0144 28.3195 22.9522 28.3195 22.9522 28.3817L22.89 28.5062C22.89 28.5062 22.89 28.6929 22.89 28.7552C22.89 28.8174 22.8278 28.8174 22.89 28.8797C22.9522 28.9419 22.8278 29.0041 22.8278 29.0041L22.7034 29.0664C22.7034 29.0664 22.579 29.0664 22.5167 29.0664L22.5789 28.9419C22.5789 28.9419 22.5789 28.9419 22.5789 28.8797C22.6411 28.8174 22.5168 28.8174 22.6412 28.7552C22.7656 28.6929 22.7656 28.5062 22.7656 28.5062C22.7656 28.5062 22.6411 28.5062 22.7656 28.444C22.8278 28.3817 22.7034 28.3817 22.7034 28.3817C22.6412 28.3817 22.579 28.444 22.5167 28.444C22.5167 28.3817 22.579 28.3195 22.6412 28.2573C22.8278 28.1328 23.1388 27.9461 23.4498 27.7593ZM23.512 27.3859C23.512 27.3859 23.5742 27.4481 23.6364 27.4481C23.6364 27.4481 23.6364 27.5104 23.5742 27.5104C23.512 27.5104 23.4498 27.5726 23.4498 27.5726L23.201 27.6971C23.201 27.6971 23.0144 27.8216 22.89 27.8838H22.8278C22.8278 27.8838 22.8278 27.7593 22.89 27.7593C22.9522 27.7593 22.89 27.7593 23.0144 27.7593C23.0766 27.7593 23.0766 27.6971 23.1388 27.6349C23.201 27.5726 23.2632 27.5726 23.2632 27.5104C23.2632 27.4481 23.2632 27.3859 23.2632 27.3859C23.2632 27.3859 23.2632 27.3859 23.3254 27.4481C23.3254 27.5104 23.3254 27.5104 23.4498 27.4481C23.512 27.4481 23.512 27.3859 23.512 27.3859ZM24.2584 26.3278C24.134 26.39 24.0096 26.4523 23.9474 26.5145C23.9474 26.5145 23.9474 26.5145 23.9474 26.4523C24.0096 26.39 24.0718 26.3278 24.134 26.3278C24.2584 26.2033 24.3828 26.1411 24.5694 26.0166C24.5694 26.0166 24.5694 26.0166 24.6316 26.0166C24.5072 26.0788 24.3828 26.2033 24.2584 26.3278ZM25.067 26.9502H25.0048C24.9426 26.9502 24.8804 27.0124 24.8182 27.0124C24.445 27.1369 24.134 27.2614 23.823 27.3859C23.9474 27.0747 24.134 26.7635 24.3206 26.4523C24.3828 26.5145 24.3828 26.5768 24.445 26.5768C24.5694 26.5768 24.5072 26.4523 24.5694 26.4523C24.5694 26.4523 24.6316 26.4523 24.6938 26.4523C24.756 26.4523 24.756 26.4523 24.6938 26.5145C24.6316 26.5768 24.5072 26.7012 24.5072 26.7012C24.3206 26.7012 24.8182 27.0124 24.756 26.7012C24.8182 26.7012 24.8804 26.7012 24.9426 26.7012C25.0048 26.7012 25.1292 26.5145 25.1914 26.5145C25.1292 26.7012 25.067 26.8257 25.067 26.9502ZM25.1914 29.8755C25.1914 29.8133 25.1292 29.751 25.067 29.751C25.067 29.6888 25.067 29.6266 25.067 29.6266C25.1292 29.6266 25.1914 29.6266 25.2536 29.6266C25.3158 29.6266 25.1914 29.5021 25.1914 29.5643C25.1914 29.5643 25.1914 29.5021 25.2536 29.5021V29.4398C25.2536 29.3776 25.2536 29.2531 25.1914 29.3153H25.1292C25.1292 29.2531 25.1292 29.1909 25.1292 29.1286C25.1914 29.1909 25.3158 29.1909 25.3158 29.1909H25.378C25.5024 29.1909 25.378 29.0664 25.378 29.0664H25.4402C25.4402 29.0041 25.4402 28.9419 25.5024 28.8797C25.5646 28.8174 25.5024 28.6929 25.4402 28.6929C25.378 28.6929 25.3158 28.7552 25.3158 28.8174C25.3158 28.8797 25.1914 28.8174 25.1914 28.8174C25.1914 28.8174 25.1292 28.6929 25.067 28.6929C25.067 28.6307 25.067 28.5685 25.067 28.5062C25.689 28.3195 25.9378 28.195 26.311 28.1328V28.195C26.1866 28.2573 26.1244 28.444 26.1866 28.5062C26.1866 28.5685 26.2488 28.5062 26.311 28.5685C26.311 28.6307 26.311 28.6929 26.311 28.7552C26.3732 28.8174 26.4354 28.8797 26.4354 28.8797C26.4976 28.9419 26.5598 29.0664 26.622 29.0664C26.622 29.0664 26.6842 29.0664 26.7464 29.1286L26.8708 29.2531C26.933 29.3154 26.9952 29.3153 26.9952 29.3153C26.9952 29.3776 26.9952 29.3776 26.9952 29.4398C26.1244 29.6266 25.8756 29.6888 25.1914 29.8755ZM27.3062 31.2448C27.0574 31.3071 26.7464 31.3693 26.4976 31.4938H26.4354L26.4976 31.4315C26.4976 31.4315 26.4976 31.3693 26.4976 31.3071C26.4976 31.2448 26.4976 31.1826 26.4354 31.1826C26.4354 31.1826 26.311 31.1826 26.2488 31.1826C26.2488 31.1826 26.2488 31.1826 26.2488 31.1203C26.2488 31.0581 26.311 30.9958 26.2488 30.9958C26.1866 30.9336 26 30.9958 25.9378 30.9958C25.9378 30.9958 25.7512 30.9336 25.689 30.8714H25.7512C25.7512 30.8714 25.7512 30.8091 25.689 30.7469C25.6268 30.6846 25.6268 30.7469 25.6268 30.7469C25.6268 30.7469 25.6268 30.7469 25.6268 30.6846C25.6268 30.6224 25.5646 30.6224 25.5646 30.6224C25.5024 30.4979 25.5024 30.6224 25.4402 30.6224C25.4402 30.6224 25.5646 30.4979 25.378 30.4979C25.3158 30.4979 25.3158 30.3112 25.2536 30.3112C25.1914 30.3112 25.1292 30.8091 25.0048 30.7469C25.0048 30.6224 25.0048 30.4357 24.9426 30.3112C25.8134 30 26.0622 29.9378 26.8708 29.6888C27.1196 30.1245 27.1818 30.6846 27.3062 31.2448ZM28.6746 26.888C28.7368 27.0124 28.7368 27.1369 28.799 27.3237C28.5502 27.3859 28.3636 27.4481 28.1148 27.4481C28.1148 27.4481 28.1148 27.3859 28.177 27.3859C28.2392 27.2614 28.3636 27.3237 28.4258 27.1992C28.4258 27.0747 28.5502 26.9502 28.6746 26.888ZM29.4211 24.8963C29.2345 24.8963 28.9856 24.9585 28.799 25.0207C28.799 24.9585 28.7368 25.0207 28.6746 24.9585C28.6746 24.9585 28.6746 24.9585 28.6124 24.9585C28.5502 24.9585 28.488 24.9585 28.4258 24.9585C28.3636 24.9585 28.4258 24.9585 28.4258 24.8963C28.4258 24.834 28.5502 24.8963 28.6124 24.7718V24.7095C28.7368 24.7095 28.8612 24.6473 28.9856 24.6473C29.1101 24.6473 29.2967 24.7718 29.4211 24.8963ZM30.6651 24.7718C30.3541 24.7718 30.0431 24.834 29.6699 24.8963C29.4833 24.7095 29.4211 24.6473 29.2967 24.5851C29.5455 24.5851 29.7321 24.5228 29.9187 24.5228C30.1675 24.5851 30.4163 24.6473 30.6651 24.7718ZM31.6603 24.7095C31.4115 24.7095 31.2249 24.7095 30.9139 24.7095C30.7273 24.5851 30.5407 24.5228 30.4163 24.4606H30.4785H30.7895C31.1005 24.5228 31.4115 24.6473 31.6603 24.7095ZM32.1579 24.7095C31.9713 24.6473 31.6603 24.5228 31.4737 24.4606C31.6603 24.4606 31.7847 24.5228 32.0335 24.5851C32.2201 24.6473 32.5311 24.7095 32.5311 24.7095C32.5311 24.7095 32.2823 24.7718 32.1579 24.7095ZM33.5263 25.3319C33.5263 25.3319 33.4019 25.2697 33.3397 25.3319C33.3397 25.3319 33.3397 25.3319 33.3397 25.3942C33.3397 25.3942 33.3397 25.3942 33.2775 25.3942C33.2775 25.3942 33.2775 25.3942 33.2775 25.4564C33.2153 25.5187 33.2153 25.4564 33.1531 25.4564C32.8421 25.2075 32.6555 25.083 32.4067 24.9585C32.5933 24.9585 32.8421 25.0207 33.0287 25.0207C33.1531 25.083 33.2775 25.1452 33.4019 25.2075C33.5263 25.2075 33.5885 25.2697 33.5263 25.3319ZM33.7129 28.2573C33.6507 28.2573 33.6507 28.2573 33.5885 28.2573C33.5263 28.1328 33.4641 27.9461 33.4019 27.8216C33.4641 27.9461 33.5263 28.0083 33.6507 28.0705C33.7129 28.1328 33.7129 28.195 33.7129 28.2573ZM27.6172 31.4938V31.4315C28.3014 31.2448 28.9856 31.1203 29.6699 30.9336C29.7321 31.1203 29.7321 31.3071 29.7943 31.4938H27.6172ZM29.6077 30.7469C28.9234 30.8714 28.2392 31.0581 27.555 31.2448C27.4306 30.6224 27.3684 30.0622 27.244 29.5643C27.9282 29.3776 28.5502 29.2531 29.2345 29.0664C29.3589 29.5643 29.4833 30.1245 29.6077 30.7469ZM29.9187 27.2614L29.7321 27.3859C29.5455 27.3237 29.5455 27.5726 29.4833 27.5726C29.4833 27.5726 29.4211 27.4481 29.3589 27.4481C29.3589 27.4481 29.2967 27.4481 29.2345 27.4481C29.2345 27.4481 29.2345 27.5104 29.2345 27.5726C29.2345 27.6349 29.2345 27.6349 29.2345 27.6349H29.2967C29.3589 27.5726 29.2345 27.7593 29.2345 27.7593C29.2967 27.7593 29.4211 27.7593 29.4833 27.7593C29.4833 27.8216 29.4211 27.8216 29.3589 27.8838C29.3589 27.9461 29.6699 27.7593 29.6699 27.8838C29.6699 28.0083 29.8565 27.8216 29.8565 27.8216C29.9809 27.6971 30.1053 27.5104 30.2297 27.4481C30.2919 27.3859 30.1053 27.3236 29.9809 27.2614C30.2297 27.1992 30.4163 27.1992 30.7273 27.1369C30.9139 27.5726 31.1005 28.0083 31.2249 28.5062C30.6029 28.5685 29.9187 28.6929 29.2967 28.8174C29.1723 28.3195 29.0478 27.8838 28.9234 27.4481C29.4211 27.3236 29.6699 27.3236 29.9187 27.2614ZM28.9856 26.39V26.2656L28.8612 26.1411C29.2967 26.0788 29.7943 25.9544 30.2297 25.8921C30.4163 26.2033 30.6029 26.5145 30.7273 26.9502C30.1675 27.0124 29.5455 27.1369 28.9856 27.2614C28.9234 27.0747 28.8612 26.888 28.8612 26.7012C28.9234 26.5768 29.0478 26.5145 28.9856 26.39ZM31.6603 25.5809C31.2249 25.5809 30.7273 25.6432 30.2919 25.7054C30.1053 25.4564 29.9809 25.2075 29.7943 25.0207C30.2919 24.9585 30.4163 24.9585 30.9139 24.8963C31.1627 25.083 31.4115 25.3319 31.6603 25.5809ZM31.9091 25.5809C31.6603 25.3319 31.4115 25.083 31.1627 24.9585C31.4737 24.9585 31.7847 24.9585 32.0335 24.9585C32.3445 25.1452 32.7177 25.3319 33.0287 25.5809C32.7177 25.5187 32.3445 25.5187 31.9091 25.5809ZM30.9139 26.888C30.7273 26.5145 30.5407 26.1411 30.4163 25.8299C30.9139 25.7676 31.4115 25.7054 31.8469 25.7054C32.0957 26.0166 32.3445 26.3278 32.5933 26.7012C31.8469 26.8257 31.5981 26.8257 30.9139 26.888ZM33.2153 28.2573C32.5933 28.3195 32.3445 28.3195 31.8469 28.3817C31.8469 28.3195 31.9091 28.3195 31.8469 28.2573C31.8469 28.2573 31.7225 28.3195 31.7225 28.3817V28.444C31.6603 28.444 31.6603 28.444 31.5981 28.444C31.4115 27.9461 31.2871 27.5104 31.1005 27.0747C31.6603 27.0124 32.2201 26.9502 32.7799 26.888C32.7799 26.888 32.8421 26.9502 32.8421 27.0124C32.7177 27.1369 32.8421 27.1369 32.7799 27.1992C32.7799 27.2614 32.6555 27.3237 32.6555 27.3859C32.6555 27.4481 32.7177 27.5726 32.7177 27.6349C32.7799 27.6349 32.8421 27.6971 32.8421 27.7593C32.8421 27.7593 32.7799 27.7593 32.7799 27.8216C32.7799 27.8838 32.8421 27.9461 32.9043 28.0083C32.9665 28.0705 32.9665 28.0705 33.0287 28.0705C33.0287 28.0705 33.0909 28.0083 33.1531 27.9461C33.1531 28.0083 33.2153 28.0705 33.2153 28.1328C33.2775 28.1328 33.2153 28.195 33.2153 28.2573ZM33.0287 29.3776C32.9665 29.3776 32.7799 29.5643 32.7799 29.4398C32.7799 29.3776 32.8421 29.2531 32.7799 29.1909C32.7799 29.1909 32.7177 29.1286 32.6555 29.1909C32.6555 29.1909 32.6555 29.1909 32.5933 29.1909C32.5311 29.0041 32.1579 28.8797 32.0335 28.8174C31.9713 28.7552 32.0335 28.6929 32.0335 28.6307C32.5311 28.5685 32.7799 28.5685 33.2153 28.5062C33.2775 28.5685 33.2775 28.6307 33.3397 28.6929C33.4641 28.8797 33.4641 28.8797 33.2775 29.0041C33.2153 29.0664 33.0287 29.1286 33.0287 29.2531C33.0909 29.2531 33.1531 29.3154 33.0287 29.3776ZM32.6555 30.4357C32.7177 30.4979 32.8421 30.4979 32.8421 30.5602C32.8421 30.6224 32.9043 30.7469 32.9043 30.8091C32.9043 30.8714 32.9665 30.8714 32.9665 30.8714C32.9665 30.8714 32.9043 30.9958 32.8421 30.9958C32.8421 30.9958 32.7799 30.9336 32.7177 30.9958C32.6555 30.9958 32.5311 30.9958 32.4689 31.0581C32.4689 31.1203 32.2823 31.1203 32.2823 31.1203C32.2201 30.9336 32.1579 30.7469 32.1579 30.4979C32.2823 30.4979 32.4689 30.4357 32.6555 30.4357ZM31.5981 28.6307H31.6603C31.6603 28.6929 31.6603 28.6929 31.6603 28.7552C31.6603 28.7552 31.7225 28.7552 31.7225 28.8174C31.7225 28.8174 31.7225 28.8174 31.7225 28.8797C31.7225 28.9419 31.7847 29.0041 31.7847 29.0041V29.0664C31.7847 29.0664 31.7225 29.0664 31.6603 29.1286C31.6603 28.9419 31.5981 28.8174 31.5981 28.6307ZM31.4737 29.3153C31.4737 29.3776 31.4115 29.3776 31.4115 29.3776C31.4115 29.4398 31.4115 29.5021 31.4115 29.5021C31.4115 29.5643 31.4737 29.5021 31.5359 29.5643C31.5981 29.6266 31.4115 29.8755 31.5359 29.8755C31.5981 29.8755 31.6603 29.8755 31.7225 29.8133C31.7847 30 31.8469 30.1867 31.8469 30.3734C31.1627 30.4979 30.4785 30.5602 29.7943 30.6846C29.6699 30 29.5455 29.5021 29.4211 29.0041C30.0431 28.8797 30.7273 28.7552 31.3493 28.6929C31.4115 28.8174 31.4115 29.0041 31.4737 29.1286C31.4737 29.1286 31.4115 29.1286 31.4115 29.1909C31.4115 29.1286 31.4737 29.1909 31.4737 29.3153ZM31.8469 29.4398C31.8469 29.4398 31.7225 29.1909 31.8469 29.2531C31.8469 29.2531 31.9091 29.3154 31.9713 29.3776C32.0335 29.4398 31.9713 29.5021 31.9713 29.5021C31.9713 29.5021 31.9091 29.8133 32.0335 29.6888C32.0335 29.6888 32.2201 29.6266 32.2823 29.6266C32.2823 29.6266 32.2823 29.6888 32.2201 29.6888C32.1579 29.6888 32.0957 29.6888 32.0957 29.751C32.0335 29.8133 32.0335 30 32.0335 30C32.1579 30.0622 32.5311 29.5021 32.7799 29.6888V29.751C32.7799 29.751 32.7799 29.8133 32.7177 29.8133C32.6555 29.8133 32.5933 29.9378 32.5933 29.9378L32.5311 29.8755C32.4689 29.8755 32.5311 30 32.5311 30C32.5311 30.0622 32.3445 30.1245 32.2201 30.1867C32.2201 30.1867 32.2201 30.1867 32.2201 30.249C32.2201 30.249 32.2201 30.3112 32.2823 30.3112C32.2201 30.3112 32.1579 30.3112 32.0957 30.3112C32.0335 30.0622 31.9713 29.8133 31.9091 29.6266C31.9091 29.5643 31.9091 29.5021 31.8469 29.4398ZM33.1531 25.9544C33.0909 26.0166 33.0909 26.0166 33.0909 26.0166C33.1531 26.2033 33.0287 26.0788 33.0287 26.2656C33.0287 26.4523 33.1531 26.39 32.9665 26.5145C32.9665 26.5145 32.9043 26.639 32.9043 26.7012H32.8421C32.5933 26.3278 32.3445 26.0166 32.0957 25.7054C32.5933 25.7054 32.7799 25.7054 33.1531 25.7054C33.2153 25.7676 33.1531 25.8299 33.0909 25.8299C33.0909 25.8921 33.1531 25.9544 33.1531 25.9544ZM28.6746 25.7054V25.6432C28.6746 25.6432 28.9234 25.6432 28.799 25.5187C28.799 25.5187 28.7368 25.5187 28.7368 25.4564C28.7368 25.4564 28.8612 25.4564 28.8612 25.3942C28.8612 25.3319 28.799 25.2697 28.7368 25.2697C28.7368 25.2697 28.6746 25.2075 28.6124 25.2075C28.9234 25.1452 29.2345 25.083 29.5455 25.083C29.7321 25.2697 29.8565 25.5187 30.0431 25.7676C29.5455 25.8299 29.1101 25.8921 28.6124 26.0166C28.6124 26.0166 28.6124 26.0166 28.5502 26.0166C28.6124 26.0166 28.7368 26.0166 28.7368 25.9544C28.8612 25.8299 28.7368 25.7676 28.6746 25.7054ZM24.0096 28.6929C23.8852 28.7552 23.7608 28.8174 23.6364 28.8174C23.6364 28.7552 23.5742 28.6929 23.6364 28.7552C23.7608 28.8174 23.6986 28.6307 23.823 28.6307C23.8852 28.5685 23.9474 28.6307 24.0096 28.6929C24.0096 28.6307 23.9474 28.6307 24.0096 28.6929ZM24.8182 28.3817C24.756 28.3817 24.756 28.3817 24.6938 28.444C24.6938 28.3817 24.8182 28.3195 24.6938 28.2573C24.6938 28.2573 24.6938 28.3195 24.6316 28.3195C24.6316 28.3195 24.5694 28.2573 24.5072 28.195C24.445 28.195 24.3828 28.195 24.3828 28.1328C24.3206 28.1328 24.3206 28.0705 24.3206 28.0705L24.1962 28.1328C24.134 28.1328 24.134 28.0083 24.0718 28.0083C24.0096 28.0083 23.9474 28.1328 23.8852 28.0705H23.7608C23.7608 28.0705 23.823 28.0083 23.823 27.9461C23.823 27.8838 23.7608 27.8216 23.6986 27.8216C23.6364 27.8216 23.5742 27.8838 23.512 27.8838C23.512 27.8216 23.5742 27.7593 23.6364 27.6349C23.9474 27.5104 24.3828 27.3237 24.756 27.1992C24.8182 27.1992 24.8804 27.1369 24.9426 27.1369C24.8804 27.5104 24.8804 27.9461 24.8182 28.3817ZM24.756 30.3734C24.756 30.3734 24.6938 30.3112 24.6316 30.249C24.6938 30.249 24.756 30.1867 24.8182 30.1867C24.8182 30.3112 24.8182 30.3734 24.8182 30.4979C24.8182 30.5602 24.756 30.3734 24.756 30.3734ZM23.2632 30.4979C23.3254 30.5602 23.3254 30.5602 23.3254 30.5602C23.3876 30.5602 23.3876 30.249 23.4498 30.249C23.4498 30.249 23.512 30.3112 23.512 30.3734C23.512 30.3734 23.6364 30.3734 23.6986 30.249C23.6986 30.249 23.7608 30.1867 23.6986 30.1245C23.6986 30.1245 23.6986 30.1245 23.6364 30.1867L23.5742 30.1245L23.512 30.0622H23.4498C23.4498 30.0622 23.3876 30 23.4498 29.9378C23.4498 29.9378 23.4498 29.9378 23.4498 29.8755C23.4498 29.8133 23.3876 29.8133 23.3876 29.751C23.3876 29.751 23.4498 29.8133 23.512 29.751C23.5742 29.6888 23.823 29.4398 23.7608 29.4398C23.5742 29.3776 23.7608 29.1286 23.7608 29.0041C23.9474 28.9419 24.0718 28.8797 24.1962 28.8174C24.1962 28.8797 24.1962 28.9419 24.1962 28.9419C24.2584 28.9419 24.3206 28.8174 24.3206 28.7552C24.3828 28.8174 24.445 28.8797 24.445 29.0041C24.445 29.0664 24.3828 29.0664 24.3828 29.1286C24.3828 29.1286 24.3828 29.1286 24.3828 29.1909C24.3828 29.2531 24.3206 29.3776 24.3206 29.3776C24.2584 29.4398 24.3206 29.4398 24.3828 29.4398L24.445 29.5021C24.3828 29.5021 24.0718 29.751 24.0718 29.751C24.0096 29.751 24.0096 30.1245 24.134 30.0622C24.2584 30 24.2584 29.8755 24.3206 29.8755C24.3206 29.8755 24.3828 29.8133 24.445 29.8133C24.5072 29.8133 24.5072 29.8133 24.5694 29.8755C24.6316 29.9378 24.6316 29.9378 24.6316 30C24.6316 30 24.6938 30.0622 24.756 30.0622C24.6938 30.0622 24.6316 30.0622 24.6316 30.1245H24.5694C24.5072 30.1245 24.5694 30.0622 24.445 30.0622C24.3828 30.0622 24.3828 30.1245 24.3828 30.1867C24.3206 30.1867 23.512 30.4979 23.2632 30.6224C23.2632 30.4979 23.2632 30.3112 23.2632 30.1867C23.3254 30.1245 23.3876 30.1867 23.3254 30.3112C23.201 30.3734 23.201 30.4357 23.2632 30.4979ZM23.1388 30.9336C23.4498 30.8091 23.823 30.6224 24.134 30.5602L24.0718 30.6846C24.0718 30.7469 24.134 30.8091 24.134 30.8714C24.134 31.0581 23.823 31.0581 24.0096 31.1826C24.134 31.3071 24.0718 31.3693 23.9474 31.4938H23.2632C23.1388 31.3071 23.1388 31.1203 23.1388 30.9336ZM29.9809 31.4938C29.9809 31.3693 29.9187 31.1826 29.8565 31.0581V30.8714C30.8517 30.6846 31.1005 30.6224 31.9091 30.5602C31.9713 30.7469 32.0335 30.9958 32.0957 31.2448C32.0335 31.3071 32.0957 31.3693 32.1579 31.3693V31.4315L29.9809 31.4938ZM33.7751 30.7469C33.8995 30.6846 33.8995 30.4979 34.0239 30.4357C34.0861 30.6846 34.1483 30.9336 34.2105 31.1826C34.2105 31.3071 34.2727 31.3693 34.2727 31.4938H33.2153C33.2153 31.4938 33.2153 31.4315 33.2775 31.4315C33.3397 31.3693 33.3397 31.3071 33.4019 31.2448C33.4641 31.1826 33.5263 31.1203 33.5263 31.0581C33.5263 31.0581 33.4641 30.9336 33.4641 30.8714C33.4641 30.8091 33.5263 30.7469 33.5263 30.7469C33.5885 30.6846 33.7129 30.8091 33.7751 30.7469ZM34.2727 28.444C34.0861 28.6307 33.8995 28.5685 33.8373 28.6307C33.8995 28.5062 33.7129 28.5062 33.7129 28.5062C33.8995 28.444 34.0861 28.444 34.2727 28.444ZM35.2057 27.0747C35.2057 27.0747 35.0813 27.1369 35.0813 27.1992C35.0813 27.2614 34.8325 27.1992 34.8325 27.3237C34.7703 27.2614 34.7703 27.1992 34.7081 27.1369C34.7081 27.1369 34.7081 27.0747 34.7703 27.0747C34.8947 26.9502 35.0813 26.9502 35.2057 27.0747C35.2057 27.0124 35.2057 27.0124 35.2057 27.0747ZM34.3971 31.1826C34.3349 30.9958 34.3349 30.8091 34.2727 30.6224C34.3971 30.7469 34.4593 30.8714 34.5837 30.8714C34.6459 30.8714 34.7081 30.8714 34.7081 30.8714C34.7703 30.8714 34.8325 30.9336 34.8325 30.9958C34.8947 30.9958 34.9569 31.1203 34.9569 31.1826C34.9569 31.1826 34.9569 31.3071 34.9569 31.3693C34.9569 31.4315 34.8325 31.3693 34.7081 31.4315C34.6459 31.4315 34.5837 31.4938 34.5837 31.556V31.6183H34.3349C34.4593 31.3693 34.4593 31.3071 34.3971 31.1826ZM37.6316 29.9378C37.5694 29.8133 37.5072 29.6266 37.445 29.5021C37.5694 29.5643 37.8182 29.6266 37.8804 29.751C38.0048 29.8755 37.756 29.9378 37.6316 29.9378ZM36.512 29.3776C36.512 29.3776 36.5742 29.3776 36.6364 29.4398L36.6986 29.3776C36.6986 29.3776 36.6364 29.5021 36.6364 29.5643C36.6364 29.5643 36.6986 29.5643 36.7608 29.5643C36.823 29.5643 36.823 29.6888 36.823 29.6888C36.8852 29.6888 37.0718 29.5021 37.134 29.5021H37.1962C37.2584 29.6888 37.3206 29.8133 37.3828 30C37.3206 30 37.1962 30.0622 37.134 30C36.9474 29.9378 36.8852 30.0622 36.7608 30.1245C36.5742 30.1245 36.4498 30.1245 36.2632 30.0622V30C36.3254 29.8133 36.2632 29.6266 36.3254 29.4398C36.3254 29.3776 36.4498 29.3153 36.512 29.3153C36.5742 29.3153 36.4498 29.3776 36.512 29.3776ZM36.3254 31.1203C36.2632 30.9336 36.2632 30.8091 36.201 30.6224C36.2632 30.6224 36.3254 30.6224 36.3254 30.6846C36.3254 30.7469 36.3254 30.8091 36.3254 30.8091C36.3876 30.8091 36.3876 30.8714 36.4498 30.8714C36.512 30.8714 36.4498 30.9336 36.512 30.9958C36.5742 30.9958 36.6986 31.0581 36.823 31.0581C36.9474 31.1826 36.9474 30.9336 37.0096 30.9336C37.0718 30.8714 37.134 30.9958 37.2584 30.9958C37.3206 30.9958 37.3828 30.8714 37.5072 30.8091C37.5072 30.8091 37.5694 30.7469 37.5694 30.8091C37.5694 30.8091 37.5694 30.8714 37.5694 30.9336C37.5694 30.9958 37.6316 31.0581 37.6938 31.1826C37.6938 31.3071 37.6938 31.4938 37.6316 31.556H36.4498C36.3876 31.3693 36.3254 31.2448 36.3254 31.1203ZM35.8278 31.1826C35.9522 31.3071 35.9522 31.3693 36.0766 31.2448C36.0766 31.2448 36.1388 31.2448 36.1388 31.1826C36.1388 31.2448 36.201 31.3693 36.201 31.4315H35.1435C35.1435 31.3693 35.1435 31.3071 35.1435 31.3071C35.1435 31.3071 35.2057 31.3071 35.2057 31.2448C35.2057 31.1826 35.2679 31.1203 35.2679 31.0581C35.2679 30.9958 35.1435 30.8714 35.2057 30.8091C35.2057 30.8091 35.2679 30.8091 35.3301 30.8091V30.7469C35.2679 30.7469 35.1435 30.6846 35.0191 30.6224C35.0191 30.6224 35.0191 30.5602 34.9569 30.5602C34.8325 30.4979 34.7081 30.4979 34.6459 30.4357C34.5837 30.3734 34.5215 30.3112 34.3971 30.249L34.3349 30.1867C34.4593 30.1867 34.5837 30.1867 34.6459 30.1867L34.7081 30.249C34.8325 30.3112 34.8947 30.3112 35.0813 30.3734H35.2679C35.2679 30.4357 35.2679 30.5602 35.3301 30.6224C35.4545 30.6224 35.4545 30.7469 35.5168 30.8091C35.5168 30.8714 35.5789 30.8091 35.6412 30.8714C35.7656 30.9958 35.8278 31.1203 35.8278 31.1826ZM35.9522 30.4357C36.0144 30.6224 36.0766 30.8091 36.0766 30.9336C36.0144 30.8714 35.9522 30.8091 35.9522 30.7469C35.89 30.6846 35.8278 30.6224 35.8278 30.5602C35.8278 30.4979 35.89 30.6224 35.9522 30.5602C35.9522 30.6224 35.89 30.4357 35.9522 30.4357ZM34.1483 26.888C34.1483 26.9502 34.0861 26.9502 34.1483 27.0124C34.1483 27.0124 34.2105 27.0747 34.2727 27.1369H34.3349C34.3971 27.1369 34.3349 27.1992 34.3349 27.2614C34.3349 27.2614 34.3971 27.2614 34.4593 27.2614C34.5215 27.3236 34.5215 27.3859 34.5837 27.3859C34.4593 27.3859 34.3971 27.4481 34.4593 27.5104C34.5837 27.6971 34.7081 27.5726 34.7703 27.6349C34.7703 27.6349 34.8325 27.7593 34.8325 27.8216C34.8325 27.8838 34.7081 27.8216 34.6459 27.8216C34.5837 27.8216 34.6459 27.7593 34.5837 27.8216C34.5215 27.8838 34.5215 27.8838 34.5215 27.9461C34.5215 28.2573 34.6459 28.0705 34.6459 28.1328C34.6459 28.195 34.5837 28.2573 34.5837 28.2573C34.3971 28.2573 34.1483 28.2573 33.9617 28.2573C33.9617 28.195 33.9617 28.1328 34.0861 28.195C34.1483 28.195 34.1483 28.0705 34.1483 28.0705V28.0083C34.1483 27.9461 34.0239 28.0083 34.0861 27.9461C34.1483 27.8838 34.0239 27.8216 34.0239 27.7593C34.0239 27.6971 34.2105 27.6971 34.2105 27.6349C34.2105 27.6349 34.2105 27.5104 34.1483 27.4481L33.8995 27.3237L33.8373 27.0124L34.1483 26.888ZM33.8995 26.1411C33.9617 26.0166 34.0861 25.9544 34.1483 26.0788C34.2105 26.2033 34.0861 26.2656 34.1483 26.39C34.0861 26.3278 33.9617 26.2033 33.8995 26.1411ZM33.8373 26.39C33.8995 26.4523 34.0239 26.5145 34.0861 26.639V26.7012C33.9617 26.7012 33.8995 26.7012 33.8373 26.7012C33.8373 26.639 33.8373 26.5145 33.8373 26.39ZM27.3684 28.6929C27.3684 28.6307 27.4928 28.2573 27.4306 28.195C27.3062 28.1328 27.555 27.9461 27.6172 27.8838C27.6172 27.8838 27.6172 27.9461 27.6794 27.9461C27.7416 27.9461 27.7416 27.8838 27.7416 27.8838C27.7416 27.8838 27.7416 27.8838 27.7416 27.8216C27.7416 27.7593 27.7416 27.6971 27.8038 27.6971C28.1148 27.6349 28.3636 27.5726 28.6746 27.5104C28.799 27.9461 28.9234 28.3817 28.9856 28.8797C28.0526 29.0664 27.8038 29.1286 26.9952 29.3153C26.9952 29.2531 26.9952 29.1909 26.9952 29.1286H27.0574C27.1818 29.1286 27.1818 29.3153 27.3062 29.1286C27.4306 28.9419 27.3684 28.8174 27.3684 28.6929ZM25.1914 26.888C25.1914 26.7635 25.2536 26.7012 25.2536 26.5768C25.3158 26.5768 25.378 26.5768 25.378 26.639C25.378 26.7012 25.5024 26.7635 25.5646 26.7635C25.4402 26.7635 25.3158 26.8257 25.1914 26.888ZM25.689 26.888C25.7512 26.9502 25.689 27.0124 25.7512 27.1369C25.7512 27.1992 25.8134 27.2614 25.8134 27.2614C25.8134 27.3236 25.8756 27.3237 25.8756 27.3237H25.9378C26 27.3237 26 27.3237 26.0622 27.3237H26.1244C26.1866 27.3237 26.1244 27.4481 26.1244 27.4481L26.0622 27.5104C25.9378 27.5104 25.7512 27.4481 25.8134 27.7593C25.8134 27.8838 25.8756 27.8838 25.9378 27.8216C26.0622 27.7593 26.1866 27.6971 26.2488 27.7593C26.2488 27.7593 26.2488 27.8216 26.2488 27.8838C25.7512 28.0083 25.5024 28.1328 24.9426 28.3195C24.9426 27.8838 25.0048 27.5104 25.1292 27.1369C25.378 27.0124 25.5024 26.9502 25.689 26.888ZM24.8804 26.0166C24.756 26.0788 24.6316 26.1411 24.5072 26.1411C24.6316 26.0166 24.6938 25.9544 24.8182 25.8299C24.8182 25.8299 24.8182 25.8299 24.8182 25.8921C24.8182 25.9544 24.8804 26.0166 24.8804 26.0166ZM23.6364 26.9502C23.6364 26.888 23.6986 26.888 23.7608 26.888C23.7608 26.888 23.7608 26.8257 23.7608 26.7635C23.7608 26.7012 23.7608 26.7012 23.7608 26.7012C23.823 26.7012 23.8852 26.639 23.8852 26.639C23.7608 26.8257 23.6364 27.0747 23.512 27.3237C23.512 27.2614 23.512 27.1992 23.4498 27.1992C23.3876 27.1992 23.3876 27.1992 23.3254 27.1992V27.1369C23.3876 27.1369 23.4498 27.1369 23.4498 27.0747C23.6364 27.0124 23.6364 27.0124 23.6364 26.9502ZM41.6746 21.2863V21.1618H18.1005V21.2863C18.1005 21.3485 17.2919 25.9544 18.3493 31.1826C19.3445 36.0373 22.1435 42.3859 29.9187 45.3734H29.9809H30.0431C37.9426 42.3237 40.6794 35.9129 41.6124 31.1203C42.6077 25.8921 41.799 21.3485 41.7368 21.3485M33.7129 17.9876H32.7799L33.2153 16.805L33.7129 17.9876ZM35.3923 19.4191C35.3301 19.4191 35.2679 19.4191 35.2057 19.4191C35.1435 19.4191 35.0813 19.3568 35.0191 19.2946C34.9569 19.2324 34.8947 19.1079 34.7703 18.9212L33.6507 16.1826C33.5885 15.9958 33.5263 15.8714 33.5263 15.8091C33.4641 15.6846 33.4019 15.6224 33.4019 15.6224C33.4019 15.6224 33.3397 15.6224 33.2775 15.6846C33.2775 15.6846 33.2153 15.7469 33.2153 15.8714L31.9713 18.9834C31.9091 19.1079 31.8469 19.2324 31.7847 19.2946C31.7225 19.3568 31.6603 19.4191 31.5359 19.4191C31.4737 19.4191 31.4115 19.4191 31.4115 19.4191C31.3493 19.4191 31.2871 19.4813 31.2871 19.4813C31.2871 19.4813 31.2871 19.5436 31.4115 19.5436H31.6603H31.9091H32.0335C32.0957 19.5436 32.1579 19.5436 32.2823 19.5436H32.5311C32.6555 19.5436 32.6555 19.4813 32.6555 19.4813C32.6555 19.4813 32.6555 19.4191 32.5311 19.4191H32.4689C32.4067 19.4191 32.3445 19.4191 32.3445 19.4191V19.3568C32.3445 19.2946 32.3445 19.1701 32.4067 19.0456L32.7177 18.2988H33.8373L34.2105 19.3568C34.2105 19.3568 34.2105 19.4191 34.2727 19.4813C34.2727 19.5436 34.3349 19.6058 34.3971 19.6058H34.5837H34.7703H35.2679C35.3923 19.6058 35.3923 19.6058 35.4545 19.6058C35.5168 19.6058 35.5168 19.5436 35.5168 19.5436C35.5168 19.5436 35.4546 19.4191 35.3923 19.4191ZM30.9139 19.5436C30.9139 19.6058 30.9139 19.6058 30.7895 19.6058C30.6651 19.6058 30.4785 19.6058 30.2297 19.6058C30.1053 19.6058 30.0431 19.6058 29.9809 19.6058C29.9809 19.6058 29.8565 19.6058 29.7321 19.6058C29.5455 19.6058 29.4211 19.6058 29.3589 19.6058C29.2345 19.6058 29.2345 19.5436 29.2345 19.5436C29.2345 19.5436 29.2345 19.4813 29.3589 19.4813C29.4211 19.4813 29.4833 19.4813 29.5455 19.4813C29.6077 19.4813 29.6699 19.4191 29.6699 19.2324C29.6699 19.1701 29.6699 18.9834 29.6699 18.8589C29.6699 18.6722 29.6699 18.4855 29.6699 18.1743V16.556C29.6699 16.4315 29.6699 16.3693 29.6699 16.2448C29.6699 16.1203 29.6077 15.9959 29.5455 15.9959C29.4833 15.9959 29.4211 15.9959 29.3589 15.9959C29.2345 15.9959 29.2345 15.9336 29.2345 15.9336C29.2345 15.8714 29.3589 15.8714 29.3589 15.8714C29.4211 15.8714 29.5455 15.8714 29.7321 15.8714H30.0431H30.2919C30.4785 15.8714 30.6029 15.8714 30.6651 15.8714C30.7273 15.8714 30.7895 15.8714 30.7895 15.9336C30.7895 15.9336 30.7895 15.9959 30.6651 15.9959C30.6029 15.9959 30.6029 15.9959 30.5407 15.9959C30.4785 15.9959 30.4163 16.0581 30.4163 16.0581C30.4163 16.1203 30.3541 16.1826 30.3541 16.2448C30.3541 16.3071 30.3541 16.4315 30.3541 16.556V18.1743V18.8589C30.3541 19.0456 30.3541 19.1701 30.3541 19.2324C30.3541 19.2946 30.3541 19.3568 30.4163 19.3568C30.4163 19.3568 30.4785 19.4191 30.5407 19.4191H30.6651C30.7273 19.4191 30.7273 19.4191 30.7895 19.4191C30.9139 19.4813 30.9139 19.4813 30.9139 19.5436ZM28.177 17.6763V18.0498C28.177 18.1743 28.177 18.4232 28.177 18.7344V19.2946C28.177 19.3568 28.177 19.4191 28.177 19.4191C28.177 19.4191 28.177 19.4813 28.1148 19.4813C27.9904 19.5436 27.8038 19.6058 27.555 19.668C27.3062 19.7303 27.1196 19.7303 26.8708 19.7303C26.5598 19.7303 26.2488 19.668 26 19.6058C25.7512 19.5436 25.5024 19.4191 25.2536 19.2324C25.067 19.0456 24.8804 18.8589 24.756 18.61C24.6316 18.361 24.5694 18.0498 24.5694 17.7386C24.5694 17.3651 24.6316 17.0539 24.8182 16.7427C25.0048 16.4315 25.1914 16.2448 25.4402 16.0581C25.6268 15.9336 25.8756 15.8091 26.0622 15.8091C26.3732 15.7469 26.6842 15.7469 26.9952 15.7469C27.0574 15.7469 27.1818 15.7469 27.244 15.7469C27.3684 15.7469 27.4306 15.7469 27.4928 15.7469C27.555 15.7469 27.6172 15.7469 27.6172 15.7469C27.6794 15.7469 27.7416 15.7469 27.8038 15.7469C27.866 15.7469 27.9282 15.7469 27.9904 15.7469C28.1148 15.7469 28.1148 15.8091 28.1148 15.8091V15.8714C28.1148 15.9336 28.1148 16.0581 28.1148 16.1203C28.1148 16.1826 28.1148 16.3693 28.1148 16.6183C28.1148 16.7427 28.0526 16.7427 28.0526 16.7427C28.0526 16.7427 27.9904 16.7427 27.9904 16.6805C27.9904 16.6183 27.9904 16.556 27.9282 16.4315C27.9282 16.3693 27.866 16.3071 27.8038 16.2448C27.7416 16.1826 27.555 16.0581 27.3684 15.9959C27.0574 15.8714 26.5598 15.8714 26.1866 15.9336C26.0622 15.9958 25.8756 16.0581 25.7512 16.1826C25.6268 16.3071 25.5024 16.4315 25.4402 16.6805C25.378 16.8672 25.3158 17.1162 25.3158 17.4274C25.3158 17.6763 25.378 17.9253 25.4402 18.1743C25.5024 18.4232 25.6268 18.61 25.7512 18.7344C25.8756 18.9212 26.0622 19.0456 26.311 19.1079C26.5598 19.1701 26.7464 19.2324 26.9952 19.2324C27.1196 19.2324 27.1818 19.2324 27.244 19.2324C27.3062 19.2324 27.3684 19.2324 27.4306 19.1701C27.4928 19.1079 27.4928 19.1079 27.4928 19.0456V18.6722C27.4928 18.361 27.4928 18.112 27.4928 17.9876C27.4928 17.9253 27.4928 17.8631 27.4306 17.8008C27.4306 17.7386 27.3684 17.7386 27.3062 17.7386C27.244 17.7386 27.1818 17.7386 27.1196 17.7386C26.9952 17.7386 26.9952 17.6763 26.9952 17.6763C26.9952 17.6141 26.9952 17.6141 27.1196 17.6141C27.244 17.6141 27.3684 17.6141 27.555 17.6141H27.8038C27.866 17.6141 27.9282 17.6141 28.0526 17.6141C28.177 17.6141 28.177 17.6141 28.177 17.6763ZM22.7656 47.3651L21.6459 47.7386L21.2727 46.6183L22.3923 46.2448L22.7656 47.3651ZM17.1053 17.7386H15.9234V16.556H17.1053V17.7386ZM37.445 47.3651L37.756 46.1826L38.8756 46.4938L38.5646 47.6763L37.445 47.3651ZM42.6077 17.7386L42.6699 16.556L43.8517 16.6183L43.7895 17.8008L42.6077 17.7386ZM35.1435 48.9834L34.7081 49.1079L34.2105 47.1784L33.8373 47.7386L33.7129 47.2407L34.0861 46.6805L34.5215 46.556L35.1435 48.9834ZM32.4067 48.7967C32.4067 48.9212 32.4067 49.0456 32.3445 49.1079C32.3445 49.2324 32.2823 49.2946 32.2201 49.3568C32.1579 49.4191 32.0957 49.4813 31.9713 49.5436C31.8469 49.6058 31.7847 49.6058 31.6603 49.6058C31.5359 49.6058 31.4737 49.6058 31.3493 49.6058C31.2249 49.6058 31.1627 49.5436 31.1005 49.4813C31.0383 49.4191 30.9761 49.3568 30.9139 49.2946C30.8517 49.2324 30.8517 49.1079 30.7895 48.9834L31.2249 48.9212C31.2249 48.9834 31.2249 49.0456 31.2871 49.0456C31.2871 49.1079 31.3493 49.1079 31.3493 49.1701C31.3493 49.2324 31.4115 49.2324 31.4737 49.2324C31.5359 49.2324 31.5359 49.2324 31.5981 49.2324C31.7225 49.2324 31.7847 49.1701 31.8469 49.1079C31.9091 49.0456 31.9091 48.9834 31.9091 48.8589C31.9091 48.7344 31.8469 48.6722 31.7847 48.61C31.7847 48.5477 31.6603 48.5477 31.5981 48.5477H31.5359V48.1743H31.5981C31.7225 48.1743 31.7847 48.112 31.8469 48.0498C31.9091 47.9875 31.9091 47.9253 31.9091 47.8008C31.9091 47.6763 31.8469 47.6141 31.7847 47.5519C31.7225 47.4896 31.6603 47.4896 31.5981 47.4896C31.5359 47.4896 31.4737 47.5519 31.4115 47.6141C31.3493 47.6763 31.3493 47.7386 31.3493 47.8631L30.9139 47.9253C30.9139 47.8008 30.9139 47.7386 30.9761 47.6141C30.9761 47.4896 31.0383 47.4274 31.1005 47.3651C31.1627 47.3029 31.2249 47.2407 31.3493 47.1784C31.4737 47.1162 31.5359 47.1162 31.6603 47.1162C31.7847 47.1162 31.8469 47.1162 31.9713 47.1162C32.0957 47.1162 32.1579 47.1784 32.2201 47.2407C32.2823 47.3029 32.3445 47.3651 32.4067 47.4274C32.4689 47.4896 32.4689 47.6141 32.4689 47.6763C32.4689 47.8008 32.4689 47.9253 32.4067 47.9875C32.3445 48.0498 32.2823 48.112 32.2201 48.1743C32.3445 48.2365 32.4067 48.2988 32.4689 48.361C32.5311 48.4232 32.4067 48.6722 32.4067 48.7967ZM28.9234 47.9253C28.9234 47.8008 28.9234 47.7386 28.8612 47.6763C28.799 47.6141 28.7368 47.5519 28.6124 47.5519C28.488 47.5519 28.4258 47.5519 28.3636 47.6141C28.3014 47.6763 28.2392 47.7386 28.2392 47.8631C28.2392 47.9875 28.2392 48.0498 28.3014 48.112C28.3636 48.1743 28.4258 48.2365 28.5502 48.2365C28.6746 48.2365 28.7368 48.2365 28.799 48.1743C28.8612 48.112 28.8612 48.0498 28.9234 47.9253ZM29.3589 47.9875C29.3589 48.112 29.2967 48.2365 29.2967 48.2988C29.2345 48.4232 29.1723 48.4855 29.1101 48.61L28.488 49.668L27.9904 49.6058L28.6124 48.61C28.6124 48.61 28.5502 48.61 28.488 48.61C28.4258 48.61 28.4258 48.61 28.3636 48.61C28.3014 48.61 28.177 48.5477 28.1148 48.5477C28.0526 48.5477 27.9904 48.4232 27.9282 48.361C27.866 48.2988 27.8038 48.2365 27.8038 48.112C27.8038 47.9876 27.7416 47.9253 27.8038 47.8008C27.8038 47.6763 27.866 47.5519 27.866 47.4896C27.866 47.4274 27.9904 47.3029 28.0526 47.2407C28.1148 47.1784 28.2392 47.1162 28.3014 47.1162C28.3636 47.1162 28.488 47.0539 28.6124 47.0539C28.7368 47.0539 28.799 47.1162 28.9234 47.1162C29.0478 47.1162 29.1101 47.2407 29.1723 47.3029C29.2345 47.3651 29.2967 47.4274 29.2967 47.5519C29.2967 47.6763 29.3589 47.8631 29.3589 47.9875ZM25.8134 49.2946L25.378 49.1701L25.8134 47.2407L25.1914 47.5519L25.3158 47.0539L25.9378 46.7427L26.3732 46.8672L25.8134 49.2946ZM40.1196 43.8797L41.4258 42.8216L42.9809 44.751L41.7368 45.8091L41.488 45.4979L42.3589 44.751L41.9856 44.3153L41.2392 44.9378L40.9904 44.6266L41.7368 44.0041L41.3636 43.5062L40.4306 44.1909L40.1196 43.8797ZM42.7321 42.6349C42.6699 42.5104 42.6077 42.4481 42.5455 42.3237C42.4833 42.1992 42.4833 42.1369 42.4833 42.0124C42.4833 41.888 42.4833 41.8257 42.5455 41.7012C42.6077 41.5768 42.6699 41.5145 42.7321 41.4523C42.8565 41.3278 42.9187 41.2656 43.0431 41.2033C43.1675 41.1411 43.2919 41.1411 43.4163 41.1411C43.4785 41.1411 43.6029 41.1411 43.6651 41.1411C43.7273 41.1411 43.7895 41.2033 43.8517 41.2656C43.9139 41.3278 43.9761 41.39 44.0383 41.39C44.1005 41.4523 44.1627 41.5145 44.2871 41.5768C44.4115 41.639 44.4115 41.7012 44.5359 41.7635C44.5981 41.8257 44.6603 41.888 44.7225 41.9502C44.7847 42.0124 44.8469 42.0747 44.8469 42.1369C44.8469 42.1992 44.9091 42.2614 44.9091 42.3859C44.9091 42.5104 44.9091 42.6348 44.8469 42.7593C44.7847 42.8838 44.7225 43.0083 44.6603 43.0705C44.5981 43.1328 44.4737 43.195 44.4115 43.2573C44.3493 43.3195 44.2249 43.3195 44.1005 43.3817C43.9761 43.3817 43.9139 43.3817 43.7895 43.3817C43.6651 43.3817 43.6029 43.3195 43.4785 43.2573L43.7895 42.8838C43.9139 42.9461 43.9761 42.9461 44.0383 42.9461C44.1627 42.9461 44.2249 42.8838 44.2871 42.8216C44.3493 42.7593 44.3493 42.6971 44.4115 42.6971C44.4737 42.6971 44.4115 42.5726 44.4115 42.5104C44.4115 42.4481 44.4115 42.4481 44.4115 42.3859C44.4115 42.3236 44.3493 42.3237 44.3493 42.2614C44.3493 42.1992 44.2871 42.1992 44.2249 42.1369C44.1627 42.0747 44.1005 42.0124 44.0383 41.9502C43.9761 41.888 43.8517 41.8257 43.7895 41.7635C43.7273 41.7012 43.6651 41.7012 43.6651 41.639C43.6029 41.639 43.6029 41.5768 43.5407 41.5768C43.4785 41.5768 43.4785 41.5768 43.4163 41.5768C43.3541 41.5768 43.2919 41.5768 43.2919 41.639C43.2919 41.7012 43.1675 41.7012 43.1053 41.7012C43.0431 41.8257 42.9809 41.888 42.9809 41.9502C42.9809 42.0124 43.0431 42.1369 43.1053 42.1992L42.7321 42.6349ZM44.0383 39.8963L44.2871 39.5228H46.0909L44.7847 38.7137L45.0335 38.278L47.1483 39.5851L46.8995 39.9585L45.0957 40.0207L46.4019 40.8299L46.1531 41.2656L44.0383 39.8963ZM45.5311 37.2822L46.1531 35.7884L48.4546 36.722L47.8325 38.2158L47.3971 38.029L47.8325 36.971L47.2727 36.7842L46.8995 37.7178L46.4641 37.5311L46.8373 36.5975L46.2775 36.3485L45.8421 37.4066L45.5311 37.2822ZM46.5263 34.7925L46.8995 33.2365L49.3254 33.7967L49.201 34.2324L47.2105 33.7344L46.8995 34.8548L46.5263 34.7925ZM47.0239 32.1784L47.1483 30.5602L49.6364 30.7469L49.5742 31.2448L47.5215 31.1203L47.4593 32.2407L47.0239 32.1784ZM47.1483 29.5021L47.0239 27.8838L49.512 27.6971L49.6364 29.3153L49.201 29.3776L49.1388 28.1328L48.5168 28.195L48.579 29.1909L48.1435 29.2531L48.0813 28.2573L47.4593 28.3195L47.5837 29.4398L47.1483 29.5021ZM47.5837 26.639C47.4593 26.639 47.3349 26.639 47.2105 26.639C47.0861 26.639 47.0239 26.5768 46.8995 26.5145C46.7751 26.4523 46.7751 26.39 46.7129 26.2656C46.6507 26.1411 46.6507 26.0166 46.6507 25.8921C46.5885 25.7676 46.5885 25.6432 46.6507 25.5187C46.7129 25.3942 46.7129 25.2697 46.7751 25.2075C46.8373 25.1452 46.8995 25.083 46.9617 25.0207C47.0239 24.9585 47.0861 24.8963 47.1483 24.8963C47.2105 24.8963 47.2727 24.834 47.3971 24.834C47.5215 24.834 47.5837 24.7718 47.7081 24.7718C47.8325 24.7718 47.8947 24.7095 48.0191 24.7095C48.1435 24.7095 48.2057 24.7095 48.2679 24.6473C48.3301 24.6473 48.4546 24.6473 48.5168 24.6473C48.579 24.6473 48.6412 24.7095 48.7656 24.7718C48.89 24.834 48.9522 24.8963 49.0144 25.0207C49.0766 25.1452 49.1388 25.2075 49.1388 25.3319C49.1388 25.4564 49.201 25.5809 49.201 25.6432C49.201 25.7054 49.1388 25.8299 49.1388 25.9544C49.0766 26.0788 49.0144 26.1411 48.9522 26.2033C48.89 26.2656 48.7656 26.3278 48.6412 26.39L48.5168 25.8921C48.6412 25.8299 48.7034 25.7676 48.7034 25.7054C48.7034 25.6432 48.7656 25.5187 48.7656 25.3942C48.7656 25.3319 48.7034 25.2697 48.7034 25.2075C48.6412 25.1452 48.6412 25.1452 48.579 25.083C48.5168 25.083 48.5168 25.083 48.4546 25.0207C48.3923 24.9585 48.3923 25.0207 48.3301 25.0207C48.2679 25.0207 48.2057 25.0207 48.1435 25.0207C48.0813 25.0207 47.9569 25.083 47.8325 25.083C47.7081 25.083 47.6459 25.1452 47.5215 25.1452C47.4593 25.1452 47.3971 25.2075 47.3349 25.2075C47.2727 25.2075 47.2727 25.2697 47.2105 25.2697L47.1483 25.3319C47.0861 25.3942 47.0861 25.4564 47.0861 25.4564C47.0861 25.4564 47.0861 25.5809 47.0861 25.6432C47.1483 25.7676 47.1483 25.8299 47.2727 25.8921C47.3971 25.9544 47.4593 25.9544 47.5215 25.9544L47.5837 26.639ZM46.2153 24.2739L46.0287 23.7759L46.6507 22.9668L45.6555 22.8423L45.4067 22.3444L46.8995 22.5311L47.7081 21.4108L47.8947 21.9087L47.3349 22.6556L48.2679 22.7178L48.4546 23.2158L47.0861 23.029L46.2153 24.2739ZM44.9713 21.5353L44.1005 20.166L46.2153 18.8589L47.0861 20.2282L46.6507 20.4149L46.0287 19.4191L45.5311 19.7303L46.0287 20.5394L45.6555 20.7884L45.1579 19.9793L44.6603 20.2905L45.2823 21.2863L44.9713 21.5353ZM42.0479 14.4398L40.6172 15.1867L40.0574 15.9959L39.6842 15.7469L40.244 14.8755L40.4928 13.2573L40.9282 13.5685L40.7416 14.6888L41.6746 14.1286L42.0479 14.4398ZM39.0622 13.0083L38.5024 12.6971L37.6316 14.5643L37.1962 14.3776L38.067 12.5104L37.5072 12.1992L37.6938 11.8257L39.311 12.5726L39.0622 13.0083ZM35.4545 13.7552L35.0191 13.6307L35.7656 11.2656L36.201 11.39L35.4545 13.7552ZM33.6507 11.4523C33.6507 11.39 33.6507 11.2656 33.5885 11.2033C33.5263 11.1411 33.4641 11.0788 33.3397 11.0788L32.9043 11.0166L32.7799 11.639L33.2153 11.7012C33.3397 11.7012 33.4019 11.7012 33.4641 11.639C33.5885 11.639 33.6507 11.5768 33.6507 11.4523ZM33.9617 13.2573L33.4019 13.195L33.0909 12.1369L32.7799 12.0747L32.5933 13.0705L32.0957 13.0083L32.5311 10.5187L33.4641 10.7054C33.5885 10.7054 33.7129 10.7676 33.7751 10.8299C33.8373 10.8921 33.9617 10.9544 34.0239 11.0166C34.0861 11.0788 34.1483 11.2033 34.1483 11.2656C34.1483 11.39 34.1483 11.4523 34.1483 11.5768C34.1483 11.639 34.0861 11.7635 34.0861 11.8257C34.0239 11.888 34.0239 11.9502 33.9617 12.0124C33.8995 12.0747 33.8373 12.0747 33.7751 12.1369C33.7129 12.1992 33.6507 12.1992 33.5885 12.1992L33.9617 13.2573ZM30.9139 11.7635C30.9139 11.9502 30.9139 12.0747 30.8517 12.1992C30.8517 12.3237 30.7273 12.4481 30.6651 12.5104C30.5407 12.6349 30.4785 12.6971 30.3541 12.7593C30.2297 12.8216 30.1053 12.8216 29.9809 12.8216C29.8565 12.8216 29.7321 12.8216 29.6077 12.7593C29.4833 12.6971 29.4211 12.6349 29.2967 12.5726C29.2345 12.5104 29.1723 12.4481 29.1723 12.3859C29.1723 12.3237 29.1101 12.2614 29.1101 12.1369C29.1101 12.0124 29.1101 11.9502 29.1101 11.888C29.1101 11.8257 29.1101 11.7012 29.1101 11.5768C29.1101 11.4523 29.1101 11.39 29.1101 11.2656C29.1101 11.1411 29.1101 11.0788 29.1101 11.0166C29.1101 10.9544 29.1723 10.8921 29.1723 10.7676C29.1723 10.6432 29.2345 10.6432 29.2967 10.5809C29.3589 10.5187 29.4833 10.4564 29.6077 10.3942C29.7321 10.332 29.8565 10.332 29.9809 10.332C30.1053 10.332 30.2297 10.332 30.3541 10.3942C30.4785 10.4564 30.5407 10.5187 30.6651 10.5809C30.7273 10.6432 30.7895 10.7054 30.8517 10.8299C30.9139 10.9544 30.9139 11.0166 30.9761 11.1411H30.4785C30.4785 11.0166 30.4163 10.9544 30.3541 10.8921C30.2919 10.8299 30.1675 10.8299 30.0431 10.8299C29.9809 10.8299 29.9187 10.8299 29.8565 10.8921C29.7943 10.8921 29.7321 10.9544 29.7321 11.0166L29.6699 11.0788C29.6699 11.0788 29.6699 11.1411 29.6077 11.2033C29.5455 11.2656 29.6077 11.3278 29.6077 11.39V11.7012C29.6077 11.8257 29.6077 11.9502 29.6077 12.0124C29.6077 12.0747 29.6077 12.1369 29.6077 12.1992C29.6077 12.2614 29.6077 12.2614 29.6699 12.3237C29.7321 12.3859 29.7321 12.3859 29.7321 12.3859C29.7943 12.4481 29.7943 12.4481 29.8565 12.4481C29.9187 12.4481 29.9809 12.4481 30.0431 12.4481C30.1053 12.4481 30.1675 12.4481 30.2297 12.3859C30.2919 12.3237 30.3541 12.3237 30.3541 12.2614C30.3541 12.1992 30.4163 12.1369 30.4163 12.1369C30.4163 12.0747 30.4163 12.0124 30.4163 11.9502V11.8257H29.9809V11.4523H30.9139V11.7635ZM27.9904 12.9461L26.3732 13.195L25.9378 10.7054L27.555 10.4564L27.6172 10.8921L26.4976 11.0788L26.622 11.639L27.6172 11.4523L27.6794 11.888L26.6842 12.0747L26.8086 12.6971L27.9282 12.5104L27.9904 12.9461ZM24.6316 11.5145L24.0096 11.7012L24.6938 13.6307L24.2584 13.8174L23.5742 11.888L22.9522 12.0747L22.8278 11.639L24.5072 11.0788L24.6316 11.5145ZM22.6412 14.4398L22.2679 14.6266L20.6507 13.7552L21.3971 15.1245L20.9617 15.3734L19.7799 13.195L20.1531 13.0083L21.7703 13.8797L21.0239 12.5726L21.4593 12.3237L22.6412 14.4398ZM19.9043 16.0581L19.5311 16.3693L18.0383 14.3776L18.4115 14.0664L19.9043 16.0581ZM15.7368 20.4149L14.866 21.7842L12.7512 20.5394L13.622 19.1079L13.9952 19.3568L13.3732 20.3527L13.8708 20.6639L14.3684 19.7925L14.7416 20.0415L14.244 20.8506L14.7416 21.1618L15.3636 20.166L15.7368 20.4149ZM13.3732 22.4689C13.5598 22.5311 13.6842 22.5934 13.7464 22.6556C13.8086 22.7178 13.933 22.8423 13.9952 22.9668C14.0574 23.0913 14.0574 23.2158 14.0574 23.3402C14.0574 23.4647 14.0574 23.5892 13.9952 23.7137C13.933 23.8382 13.8708 23.9627 13.8086 24.0249C13.7464 24.0871 13.622 24.1494 13.4976 24.2116C13.4354 24.2739 13.311 24.2739 13.2488 24.2739C13.1866 24.2739 13.1244 24.2739 13 24.2739C12.8756 24.2739 12.8134 24.2116 12.7512 24.2116C12.689 24.2116 12.5646 24.1494 12.4402 24.0871C12.3158 24.0249 12.2536 24.0249 12.1292 23.9627C12.067 23.9004 11.9426 23.9004 11.8804 23.8382C11.8182 23.7759 11.756 23.7137 11.6938 23.7137C11.6316 23.7137 11.5694 23.5892 11.5694 23.527C11.5072 23.4025 11.5072 23.278 11.5072 23.1535C11.5072 23.029 11.5072 22.9046 11.5694 22.7801C11.6316 22.6556 11.6938 22.5311 11.756 22.4689C11.8182 22.4066 11.9426 22.3444 12.0048 22.2822C12.067 22.2199 12.1914 22.2199 12.3158 22.2199C12.4402 22.2199 12.5024 22.2199 12.6268 22.2199L12.4402 22.6556C12.3158 22.6556 12.1914 22.6556 12.1292 22.7178C12.067 22.7801 12.0048 22.8423 11.9426 22.9668C11.9426 23.029 11.8804 23.0913 11.9426 23.1535C11.9426 23.2158 11.9426 23.278 12.0048 23.278L12.067 23.3402C12.067 23.3402 12.1292 23.4025 12.1914 23.4025C12.2536 23.4025 12.3158 23.4647 12.378 23.4647C12.4402 23.4647 12.5646 23.527 12.6268 23.5892C12.689 23.6515 12.8134 23.6514 12.9378 23.7137C13.0622 23.7759 13.0622 23.7759 13.1244 23.7759C13.1866 23.7759 13.1866 23.7759 13.2488 23.7759C13.311 23.7759 13.311 23.7759 13.3732 23.7759C13.4354 23.7759 13.4354 23.7137 13.4976 23.7137C13.5598 23.6514 13.5598 23.5892 13.622 23.5892C13.622 23.527 13.6842 23.4647 13.6842 23.4025C13.6842 23.3402 13.6842 23.278 13.622 23.2158C13.622 23.1535 13.5598 23.0913 13.4976 23.0913C13.4354 23.029 13.3732 23.029 13.3732 23.029L13.311 22.9668L13.0622 23.3402L12.689 23.2158L13 22.3444L13.3732 22.4689ZM12.0048 25.8921C11.9426 25.8921 11.8182 25.8921 11.756 25.8299C11.6938 25.7676 11.6316 25.8299 11.5694 25.8299C11.5072 25.8299 11.5072 25.8299 11.445 25.8299C11.3828 25.8299 11.3828 25.8299 11.3206 25.8921C11.2584 25.8921 11.1962 25.9544 11.1962 26.0166C11.134 26.0788 11.134 26.1411 11.134 26.2033L11.0718 26.5768L12.689 26.888L12.7512 26.5145C12.7512 26.4523 12.7512 26.39 12.7512 26.3278C12.7512 26.2656 12.689 26.2033 12.689 26.1411C12.6268 26.0788 12.5646 26.0166 12.5024 26.0166C12.4402 26.0166 12.1914 25.8921 12.0048 25.8921ZM12.1292 25.3942L12.378 25.4564C12.4402 25.4564 12.5646 25.5187 12.6268 25.5187C12.689 25.5187 12.7512 25.5809 12.8756 25.6432C12.9378 25.7054 13 25.7676 13.0622 25.8299C13.1244 25.9544 13.1866 26.0166 13.1866 26.1411C13.1866 26.2656 13.1866 26.39 13.1866 26.5145L13 27.3859L10.5742 26.888L10.7608 26.0166C10.7608 25.8921 10.823 25.7676 10.8852 25.6432C10.9474 25.5187 11.0096 25.4564 11.134 25.3942C11.1962 25.3319 11.3206 25.2697 11.3828 25.2697C11.445 25.2697 11.5694 25.2697 11.6316 25.2697C11.6938 25.2697 11.8182 25.2697 11.8804 25.2697L12.1292 25.3942ZM12.8756 28.5685L12.8134 30.1867L10.3254 30.1245L10.3876 28.5062H10.823L10.7608 29.6266H11.3206V28.6307H11.756V29.6266H12.378L12.4402 28.5062L12.8756 28.5685ZM12.8134 31.3071L13 32.9253L10.512 33.2365L10.4498 32.7386L12.5024 32.4896L12.4402 31.3693L12.8134 31.3071ZM10.823 34.7303L13.3732 34.6058L13.4976 34.9793L12.1914 35.9129L13.7464 35.8506L13.8708 36.2241L11.8182 37.6556L11.6316 37.1577L13 36.2863L11.3828 36.3485L11.2584 36.0373L12.6268 35.1037L11.0096 35.2282L10.823 34.7303ZM13.7464 38.7137C13.622 38.7759 13.5598 38.8382 13.4976 38.8382C13.4354 38.9004 13.3732 38.9004 13.3732 38.9627C13.311 39.0249 13.311 39.0249 13.311 39.0871C13.311 39.0871 13.311 39.1494 13.2488 39.2116C13.2488 39.2739 13.2488 39.3361 13.2488 39.3983C13.2488 39.4606 13.2488 39.5228 13.311 39.5851C13.3732 39.6473 13.3732 39.7095 13.4354 39.7095C13.4976 39.7095 13.5598 39.7718 13.5598 39.7718C13.5598 39.7718 13.622 39.7718 13.6842 39.7718C13.7464 39.7718 13.7464 39.7718 13.8086 39.7718C13.8708 39.7718 13.933 39.7095 13.9952 39.7095C14.0574 39.7095 14.1196 39.6473 14.244 39.5851C14.3684 39.5228 14.4306 39.4606 14.4928 39.4606C14.555 39.3983 14.6172 39.3983 14.6794 39.3361C14.7416 39.3361 14.7416 39.2739 14.7416 39.2116C14.7416 39.1494 14.8038 39.1494 14.8038 39.0871C14.8038 39.0249 14.8038 38.9627 14.8038 38.9004C14.8038 38.8382 14.8038 38.7759 14.7416 38.7137C14.7416 38.6515 14.6794 38.5892 14.6172 38.5892C14.555 38.5892 14.555 38.527 14.4928 38.527C14.4928 38.527 14.4306 38.527 14.3684 38.527C14.3062 38.527 14.3062 38.527 14.244 38.527C14.1818 38.527 14.1196 38.5892 14.0574 38.5892C13.933 38.5892 13.8708 38.6515 13.7464 38.7137ZM13.4976 38.278C13.5598 38.2158 13.6842 38.1535 13.7464 38.1535C13.8086 38.1535 13.933 38.0913 13.9952 38.029C14.0574 37.9668 14.1196 37.9668 14.244 37.9668C14.3062 37.9668 14.4306 37.9668 14.4928 37.9668C14.6172 37.9668 14.7416 38.029 14.8038 38.0913C14.866 38.1535 14.9904 38.278 15.0526 38.4025C15.1148 38.527 15.177 38.6515 15.177 38.7759C15.177 38.9004 15.177 39.0249 15.177 39.1494C15.177 39.2116 15.1148 39.3361 15.0526 39.3983C14.9904 39.4606 14.9282 39.5228 14.866 39.5851C14.8038 39.6473 14.7416 39.7095 14.6172 39.7095C14.4928 39.7095 14.4306 39.834 14.3684 39.834C14.3062 39.834 14.1818 39.9585 14.1196 39.9585C14.0574 39.9585 13.933 40.0207 13.8708 40.083C13.8086 40.1452 13.7464 40.1452 13.622 40.1452C13.5598 40.1452 13.4354 40.1452 13.3732 40.1452C13.2488 40.083 13.1244 40.083 13.0622 40.0207C13 39.9585 12.8756 39.834 12.8134 39.7095C12.7512 39.5851 12.689 39.4606 12.689 39.3361C12.689 39.2116 12.689 39.0871 12.689 38.9627C12.689 38.9004 12.7512 38.7759 12.8134 38.7137C12.8756 38.6515 12.9378 38.5892 13 38.527C13.0622 38.4647 13.1244 38.4025 13.1866 38.4025C13.311 38.3402 13.4354 38.3402 13.4976 38.278ZM16.1723 40.2075L16.4833 40.5187L15.8612 42.3237L17.0431 41.3278L17.3541 41.7012L15.4258 43.3195L15.177 42.9461L15.7368 41.2033L14.555 42.1992L14.244 41.8257L16.1723 40.2075ZM18.1005 42.4481L18.5359 42.8216L18.2871 44.1286L18.7847 44.0664L19.2823 43.5062L19.6555 43.8174L18.0383 45.6846L17.6651 45.3734L18.3493 44.5643L16.9809 44.8133L16.5455 44.4398L17.7895 44.1909L18.1005 42.4481ZM31.9713 39.0871L31.7847 39.7095H35.5168L35.3923 39.0871H31.9713ZM35.7034 36.1618C35.7034 36.0996 35.7034 36.0996 35.7034 36.0373V35.9751C35.7034 35.9129 35.7034 35.9129 35.7034 35.8506C35.7034 35.8506 35.7034 35.8506 35.7034 35.7884C35.7034 35.7261 35.7034 35.7261 35.6412 35.6639C35.6412 35.6017 35.6412 35.6017 35.579 35.5394C35.579 35.4772 35.5168 35.4772 35.5168 35.4149C35.5168 35.3527 35.4545 35.3527 35.4545 35.2905C35.2057 34.9793 34.8947 34.7303 34.6459 34.5436C34.5837 34.4813 34.5215 34.4191 34.4593 34.3568L33.8995 34.8548C33.9617 34.917 34.0239 34.9793 34.0861 34.9793C34.0861 34.9793 34.1483 34.9793 34.1483 35.0415C34.4593 35.2905 34.7703 35.4772 34.8947 35.8506C34.8947 35.9129 34.9569 35.9751 34.9569 36.0373C34.9569 36.0373 34.9569 36.0996 34.9569 36.1618V36.2241V36.4108C34.8947 37.0954 34.5215 37.6556 33.8995 37.5934L32.4067 36.3485L32.0335 36.7842L33.5885 38.0913L33.2775 38.8382H34.7703L34.6459 38.1535C35.1435 37.9046 35.5168 37.2822 35.6412 36.473C35.6412 36.4108 35.6412 36.3485 35.6412 36.2863V36.2241C35.7656 36.2241 35.7656 36.1618 35.7034 36.1618ZM36.1388 34.0456L35.6412 33.61L35.1435 34.2324L34.9569 34.1079L34.7703 34.3568C35.0191 34.5436 35.3923 34.7925 35.6412 35.166L35.89 34.8548L35.7034 34.7303L36.1388 34.0456ZM33.8373 36.722L34.3349 36.0996L34.5837 36.2863L34.7703 36.0996C34.7081 35.7884 34.4593 35.6017 34.0239 35.2905L33.9617 35.2282L33.7129 35.5394L33.9617 35.7261L33.4641 36.3485L33.8373 36.722ZM33.2153 38.0913L32.6555 38.4647L31.8469 37.7801L32.1579 37.1577L33.2153 38.0913ZM24.756 35.7884L23.3876 34.917L22.3923 35.6639V35.7884H24.756ZM23.3254 36.1618H22.3923V36.2863C22.3923 36.2863 23.823 37.8423 24.6316 38.7759L23.3254 36.1618ZM25.5024 36.1618V39.2116L27.1196 36.1618H25.5024ZM27.4928 36.1618L26.1244 38.7759L28.488 36.2241V36.0996H27.4928V36.1618ZM26.9952 34.7925H23.8852L25.378 35.7261L26.9952 34.7925ZM25.1914 39.1494V36.1618H23.7608L25.1914 39.1494ZM26 35.7884H28.4258V35.6639L27.4306 34.917L26 35.7884ZM53.1196 33.0498L55.7321 32.3029L58.6555 33.8589L53.1196 33.0498ZM58.0957 37.0332L52.622 35.6017L55.3589 35.166L58.0957 37.0332ZM57.1005 40.0207L51.8756 38.029L54.488 37.8423L57.1005 40.0207ZM55.8565 42.9461L50.9426 40.3942L53.555 40.5187L55.8565 42.9461ZM54.2392 45.6846L49.5742 42.6349L52.2488 43.0083L54.2392 45.6846ZM52.4354 48.2365L48.1435 44.6888L50.756 45.3734L52.4354 48.2365ZM50.2584 50.6017L46.4019 46.6183L48.89 47.6141L50.2584 50.6017ZM47.8325 52.7178L44.4115 48.2988L46.7751 49.6058L47.8325 52.7178ZM45.2201 54.5228L42.2967 49.7925L44.4737 51.2863L45.2201 54.5228ZM42.4211 56.1411L40.0574 50.9751L42.1723 52.8423L42.4211 56.1411ZM42.1723 52.4689L40.1818 50.7261L41.799 49.8548L42.1723 52.4689ZM43.9139 48.4232L44.5981 51.0373L42.4211 49.5436L43.9139 48.4232ZM45.8421 46.805L46.8373 49.2946L44.4737 47.9875L45.8421 46.805ZM48.8278 47.3029L46.4019 46.3071L47.6459 44.8755L48.8278 47.3029ZM50.5694 45.0622L48.0191 44.3776L49.1388 42.8838L50.5694 45.0622ZM52.1244 42.6971L49.5742 42.3237C49.9474 41.639 50.5072 40.7054 50.5072 40.7054L52.1244 42.6971ZM53.3684 40.2075L50.756 40.083L51.5024 38.4025L53.3684 40.2075ZM30.0431 51.5975C18.1005 51.5975 8.45933 41.888 8.45933 30C8.45933 18.112 18.0383 8.40249 29.9809 8.40249C41.9235 8.40249 51.5646 18.0498 51.5646 30C51.5646 41.9502 41.9235 51.5975 30.0431 51.5975ZM37.756 51.722L39.4976 50.9751L39.5598 53.5892L37.756 51.722ZM39.4354 57.2614L37.6938 52.0332L39.5598 54.0871L39.4354 57.2614ZM36.9474 54.5851L35.3301 52.4066L37.134 51.9087L36.9474 54.5851ZM36.3876 58.1328L35.2057 52.6556L36.823 54.834L36.3876 58.1328ZM34.1483 55.2075L32.8421 52.9046L34.7081 52.5934L34.1483 55.2075ZM33.2153 58.6929L32.5933 53.1535L33.8995 55.4564L33.2153 58.6929ZM31.3493 55.5187C31.3493 55.5187 30.6651 53.8382 30.2297 53.029C30.8517 52.9668 32.0957 52.9046 32.0957 52.9046L31.3493 55.5187ZM30.1053 58.8797V53.3402L31.1627 55.8921L30.1053 58.8797ZM28.488 55.4564L27.6794 52.9046L29.6077 53.029L28.488 55.4564ZM26.8708 58.6929L27.555 53.1535L28.3014 55.7054L26.8708 58.6929ZM25.689 54.9585L25.1914 52.5311L26.9952 52.8423L25.689 54.9585ZM23.6986 58.195L24.9426 52.7178L25.5024 55.2697L23.6986 58.195ZM23.0144 54.3983L22.7034 51.9087L24.5072 52.4066L23.0144 54.3983ZM20.4019 53.527V50.9751L22.1435 51.722L20.4019 53.527ZM20.5885 57.3236L22.5167 52.0332C22.6412 52.9046 22.8278 54.6473 22.8278 54.6473L20.5885 57.3236ZM17.7273 56.0788L20.0909 51.0996L20.1531 53.7137L17.7273 56.0788ZM18.1005 49.7925L19.7799 50.6639L17.7895 52.4066L18.1005 49.7925ZM17.4785 52.5934L14.866 54.6473L17.7895 49.917L17.4785 52.5934ZM16.0478 48.361L17.6029 49.4191L15.4258 50.9129L16.0478 48.361ZM15.0526 51.0373L12.3158 52.7801L15.7368 48.4232L15.0526 51.0373ZM14.1196 46.6805L15.5502 47.9253L13.1866 49.1079L14.1196 46.6805ZM12.8134 49.2324L9.88995 50.6639L13.7464 46.7427L12.8134 49.2324ZM12.378 44.8755L13.6842 46.2448L11.1962 47.1784L12.378 44.8755ZM7.71292 48.361L12.0048 44.8755L10.823 47.3029L7.71292 48.361ZM10.823 42.8216L11.9426 44.3153L9.39235 45L10.823 42.8216ZM5.84689 45.8091L10.4498 42.8216L8.95694 45.0622L5.84689 45.8091ZM9.51675 40.6432C9.82775 41.1411 10.201 41.7012 10.512 42.2614L7.83732 42.6971L9.51675 40.6432ZM4.22967 43.0705L9.14354 40.5809L7.46412 42.6349L4.22967 43.0705ZM8.45933 38.278L9.20574 40.0207L6.4689 40.1452L8.45933 38.278ZM2.98565 40.1452L8.14833 38.2158L6.2201 40.083L2.98565 40.1452ZM1.99043 37.0954L7.33971 35.7261L5.22488 37.3444L1.99043 37.0954ZM1.43062 33.9834L6.90431 33.2365L4.66507 34.668L1.43062 33.9834ZM1.11962 30.8091L6.6555 30.6846L4.22967 31.805L1.11962 30.8091ZM1.18182 27.6349L6.7177 28.1328L4.16746 29.0041C4.16746 28.9419 1.18182 27.6349 1.18182 27.6349ZM1.61723 24.4606L7.09091 25.5809L4.41627 26.1411L1.61723 24.4606ZM2.42584 21.3485L7.71292 23.029L5.03828 23.3402L2.42584 21.3485ZM3.54545 18.361C5.22488 19.1079 6.84211 19.8548 8.58373 20.6017L5.97129 20.7261L3.54545 18.361ZM9.88995 18.61L9.01914 20.3527L7.27751 18.4232L9.88995 18.61ZM4.97608 15.5602L9.76555 18.361L7.15311 18.1743L4.97608 15.5602ZM11.2584 16.4938L10.2632 18.0498V18.112L8.70813 15.9336L11.2584 16.4938ZM6.6555 12.8216C8.14833 13.9419 9.64115 15 11.134 16.1826L8.52153 15.6224L6.6555 12.8216ZM12.8756 14.5021C12.5024 15 12.067 15.4979 11.6316 15.9959L10.3876 13.7552L12.8756 14.5021ZM8.70813 10.3942C10.0766 11.7012 11.445 12.8838 12.8134 14.1909L10.3254 13.3817L8.70813 10.3942ZM14.7416 12.6971L13.311 14.0664L12.3158 11.639L14.7416 12.6971ZM11.0096 8.15353L14.6172 12.3859L12.1914 11.3278L11.0096 8.15353ZM13.4976 6.22407L16.6077 10.7676L14.3062 9.46058L13.4976 6.22407ZM16.1723 4.54357L18.7847 9.39834L16.6077 7.78008L16.1723 4.54357ZM16.7321 11.0788L15.177 12.3237L14.4306 9.83402L16.7321 11.0788ZM16.6699 8.15353L18.8469 9.77178L17.1053 10.7676L16.6699 8.15353ZM8.02392 22.7801L6.2201 21.0373L8.77034 20.9129L8.02392 22.7801ZM7.65072 35.8506C7.83732 36.4108 8.02392 37.0954 8.27273 37.6556L5.53589 37.5311L7.65072 35.8506ZM5.16268 23.5892C6.03349 23.4647 6.96651 23.4025 7.89952 23.278L7.40191 25.1452L5.16268 23.5892ZM7.15311 33.361L7.52632 35.2282L4.85168 34.7303L7.15311 33.361ZM4.66507 26.39L7.33971 25.7676L7.09091 27.6349L4.66507 26.39ZM7.09091 32.8008L4.47847 32.0539C4.47847 32.0539 6.1579 31.3071 6.96651 30.9336L7.09091 32.8008ZM6.96651 30.1867C6.09569 29.8755 5.28708 29.5021 4.41627 29.1909C5.22488 28.8797 6.1579 28.5685 7.02871 28.3195C6.90431 28.8797 6.96651 29.6266 6.96651 30.1867ZM21.0861 8.65145L19.3445 9.46058L19.1579 6.84647L21.0861 8.65145ZM21.0861 8.27801L19.1579 6.47303L19.0335 3.11203L21.0861 8.27801ZM21.7703 5.85062L23.4498 7.84232C22.89 8.09129 22.2057 8.27801 21.6459 8.52697L21.7703 5.85062ZM22.0191 2.11618L23.512 7.40664L21.8325 5.41494L22.0191 2.11618ZM24.445 4.91701L25.9378 7.21992L24.0718 7.6556L24.445 4.91701ZM25.1914 1.43154C25.1914 1.43154 25.8134 5.10373 26.0622 6.90871L24.6316 4.66805L25.1914 1.43154ZM27.244 4.48133L28.488 6.90871L26.5598 7.09544L27.244 4.48133ZM28.3014 1.05809L28.6124 6.59751L27.4306 4.17012L28.3014 1.05809ZM30.0431 4.41909C30.0431 4.41909 30.7273 5.9751 30.9761 6.90871L29.0478 6.84647L30.0431 4.41909ZM31.5359 1.05809L31.2249 6.59751L30.2297 4.10788L31.5359 1.05809ZM32.8421 4.48133L33.5263 7.15768L31.5981 6.97095L32.8421 4.48133ZM34.6459 1.49378L33.7129 6.84647L33.0909 4.29461L34.6459 1.49378ZM35.6412 4.91701L36.0144 7.6556L34.1483 7.28216L35.6412 4.91701ZM37.756 2.11618L36.201 7.46888L35.8278 4.73029L37.756 2.11618ZM38.378 5.72614L38.4402 8.46473L36.6986 7.90456V7.84232L38.378 5.72614ZM40.9282 6.78423L40.6794 9.52282L39 8.71369L40.9282 6.78423ZM38.6268 5.53942L40.8038 3.11203L38.689 8.27801C38.689 7.40664 38.6268 6.47303 38.6268 5.53942ZM41.2392 6.65975L43.6651 4.48133L40.9904 9.3361L41.2392 6.65975ZM42.9187 10.7676C42.3589 10.5187 41.8612 10.083 41.3014 9.83402L43.4163 8.15353C43.2297 9.0249 43.1053 9.89626 42.9187 10.7676ZM43.7273 8.02905L46.3397 6.16183L43.1675 10.7054L43.7273 8.02905ZM44.9713 12.3237L43.4163 11.2033L45.7177 9.77178C45.5311 10.5809 45.1579 11.4523 44.9713 12.3237ZM46.0909 9.70954L48.9522 8.09129L45.2823 12.2614L46.0909 9.70954ZM46.7751 14.1286L45.4067 12.8216C46.2153 12.3859 47.0239 12.0124 47.8947 11.639L46.7751 14.1286ZM51.1914 10.332L47.1483 14.0664L48.2679 11.4523L51.1914 10.332ZM48.4546 15.9959L47.2105 14.5643L49.7608 13.6929L48.4546 15.9959ZM53.244 12.7593L48.7656 15.9959L50.134 13.6307C51.1914 13.3817 52.1866 13.0705 53.244 12.7593ZM49.823 18.112L48.7656 16.4315L51.2536 16.0581L49.823 18.112ZM54.9235 15.4357L50.0718 18.2365L51.6268 15.9959C52.6842 15.8714 53.8038 15.6846 54.9235 15.4357ZM51.0048 20.4149L50.134 18.7344C51.0048 18.61 52.7464 18.4855 52.7464 18.4855C52.7464 18.4855 51.6268 19.7303 51.0048 20.4149ZM56.4163 18.2988L51.3158 20.5394L53.1196 18.5477C53.1196 18.4855 55.3589 18.361 56.4163 18.2988ZM57.5359 21.2863L52.2488 22.9046L54.3014 21.1618L57.5359 21.2863ZM58.2823 24.3983L52.8708 25.3942L55.0479 23.8382L58.2823 24.3983ZM58.7799 27.5104L53.244 27.9461L55.6077 26.7012L58.7799 27.5104ZM52.9952 28.3817L55.5455 29.2531C54.7369 29.5643 53.866 29.9378 53.0574 30.249L52.9952 28.3817ZM53.0574 30.9958L55.4833 32.1162C54.6124 32.3651 53.7416 32.6141 52.8708 32.8631L53.0574 30.9958ZM52.7464 25.8921L55.2345 26.5145L52.9952 27.6971L52.7464 25.8921ZM52.8086 33.4855L55.1101 34.917L52.4354 35.3527L52.8086 33.4855ZM52.1244 23.3402L54.7368 23.7137C53.9904 24.2116 53.3684 24.7718 52.622 25.2075L52.1244 23.3402ZM51.3158 21.0373L53.9282 21.0996C53.244 21.722 52.6842 22.2822 51.9378 22.8423L51.3158 21.0373ZM52.311 36.0373L54.3636 37.5934L51.7512 37.7801C51.689 37.7801 52.1244 36.5975 52.311 36.0373ZM58.9043 30.6846L53.3062 30.4979L55.7943 29.5021C56.8517 29.8755 57.8469 30.3112 58.9043 30.6846ZM55.9187 32.1784C57.1627 31.7427 59.9617 30.8714 59.9617 30.8714L55.9809 29.3153C55.9809 29.3153 58.6555 28.1328 59.8373 27.5726L55.7321 26.4523C56.8517 25.7054 59.4019 24.3361 59.4019 24.3361L55.1723 23.6515L58.5311 21.0996L54.3014 20.9129L57.4115 17.9876L53.1818 18.2988C54.0526 17.3029 55.0479 16.0581 55.9187 15.0622L51.7512 15.8091L54.1148 12.2614L50.0718 13.5062C50.6316 12.3237 52 9.70954 52 9.70954L48.2679 11.1411L49.6364 7.40664L46.0287 9.39834C46.3397 8.09129 46.8373 6.59751 47.1483 5.29046L43.6651 7.78008C43.6651 7.78008 44.1005 4.85477 44.2871 3.54772L41.1148 6.34855L41.3014 2.11618L41.1148 2.36514C40.244 3.29875 39.3732 4.41909 38.4402 5.29046L38.1914 1.12033L35.7034 4.54357C35.4546 3.23651 35.2057 1.6805 35.0191 0.373444L32.9043 4.04564L31.7225 0L30.0431 3.85892L28.4258 0L27.1818 4.04564L25.1292 0.373444L24.3828 4.54357L21.9569 1.12033L21.6459 5.3527L18.8469 2.17842L18.9713 6.41079L15.799 3.60996L16.4211 7.78008L13 5.29046L14.0574 9.39834C14.0574 9.39834 11.5694 7.9668 10.3876 7.28216L11.8804 11.2656L7.96172 9.6473L9.88995 13.3817L5.84689 12.1369L8.21053 15.6224L4.04306 14.8755L6.7799 18.1743L2.61244 17.8631L5.59809 20.7884L1.36842 20.9129L4.72727 23.527L0.559809 24.0871L4.16746 26.2656C2.92345 26.639 1.30622 27.0124 0.062201 27.3237L3.91866 29.0664C2.67464 29.5643 0 30.6224 0 30.6224C0 30.6224 2.86124 31.4938 4.04306 31.9917L0.248804 33.9212C0.248804 33.9212 3.17225 34.5436 4.41627 34.7925C3.35885 35.5394 0.870813 37.1577 0.870813 37.1577L5.10048 37.5934C4.16746 38.527 1.86603 40.3942 1.86603 40.3942L6.1579 40.332L3.17225 43.3817L7.40191 42.8838C6.5933 43.9419 4.78947 46.2448 4.78947 46.2448L8.95694 45.3112L6.7177 48.9212L10.7608 47.4896L8.95694 51.3485C8.95694 51.3485 11.6316 49.9792 12.8134 49.5436L11.445 53.5892L15.0526 51.2863L14.1818 55.4564L17.4785 52.8423L17.0431 57.0747L20.0909 54.0249V58.3195C20.0909 58.3195 21.9569 55.9544 22.8278 55.0207C23.0144 56.3278 23.3254 59.2531 23.3254 59.2531L25.6268 55.5809L26.5598 59.751L26.7464 59.4398L28.488 55.8921L29.9187 60L31.4115 56.0166L33.2775 59.8133L34.2727 55.6432C34.2727 55.6432 35.89 58.195 36.512 59.3153L37.0718 55.0207C37.0718 55.0207 38.8756 57.3859 39.7464 58.3817L39.8708 54.2116L42.7943 57.1369L42.4211 52.9668L45.6555 55.5809C45.4067 54.3983 44.7847 51.4108 44.7847 51.4108C45.9043 52.1577 47.2727 53.029 48.3924 53.7137L47.0861 49.6058L50.9426 51.473C50.9426 51.473 49.6364 48.7344 49.1388 47.6141C50.3206 48.0498 52 48.61 53.1196 49.1079C53.244 49.2324 51.0048 45.4357 51.0048 45.4357L55.1101 46.4315L52.622 43.0083L56.7895 43.5685L53.8038 40.4564L58.0957 40.5809L54.8612 37.7801L59.0909 37.4066L55.5455 34.9793L59.7129 34.1701L55.9187 32.1784Z"
            fill="#BC9E72" />
    </g>
    <defs>
        <clipPath id="clip0_7938_49328">
            <rect width="182" height="60" fill="white" />
        </clipPath>
    </defs>
</svg>