<svg width="60" height="60" viewBox="0 0 60 60" fill="none" xmlns="http://www.w3.org/2000/svg">
<path d="M49.1038 8.31551H10.8961C10.5137 8.31551 10.1546 8.49996 9.93208 8.81098L0.221454 22.3791C-0.108546 22.8401 -0.065773 23.4702 0.32329 23.8826L29.1377 54.4184C29.6055 54.9142 30.3942 54.9142 30.862 54.4184L59.6765 23.8826C60.0656 23.4702 60.1082 22.8401 59.7784 22.3791L50.0677 8.81098C49.8452 8.49996 49.4863 8.31551 49.1038 8.31551Z" fill="#79FF79"/>
<path d="M59.9954 23.1731H39.022C45.0984 21.9782 50.1352 17.8862 52.6328 12.3942L59.7785 22.379C59.9479 22.616 60.019 22.8981 59.9954 23.1731Z" fill="#29E088"/>
<path d="M59.9956 23.1727C59.9743 23.4132 59.8795 23.6468 59.7159 23.84C59.7029 23.8543 59.6897 23.8685 59.6767 23.8827L30.8619 54.4188C30.8595 54.4212 30.8559 54.4248 30.8535 54.4272C30.7219 54.5646 30.5655 54.663 30.3971 54.7223C30.3118 54.752 30.2228 54.7722 30.1327 54.7816C30.0449 54.7935 29.9549 54.7935 29.8672 54.7816C29.777 54.7722 29.6882 54.752 29.6028 54.7223C29.4345 54.663 29.2779 54.5647 29.1463 54.4272C29.144 54.4248 29.1404 54.4212 29.138 54.4188L0.323262 23.8827C0.310254 23.8685 0.297129 23.8542 0.284121 23.84C0.120527 23.6468 0.0257227 23.4134 0.00439453 23.1727H59.9956Z" fill="#0CC166"/>
<path d="M59.9955 23.1731C59.9742 23.4137 59.8794 23.6473 59.7158 23.8405C59.7028 23.8547 59.6897 23.869 59.6766 23.8832L30.8618 54.4193L30.8534 54.4276C30.7218 54.5652 30.5654 54.6635 30.397 54.7228C30.3117 54.7525 30.2227 54.7726 30.1326 54.7821C30.0448 54.7939 29.9548 54.7939 29.8671 54.7821C29.777 54.7726 29.6881 54.7525 29.6027 54.7228C29.4344 54.6635 29.2779 54.5652 29.1462 54.4276L29.1379 54.4193L21.7314 46.5695C33.6519 44.533 43.051 35.1066 45.0497 23.173L59.9955 23.1731Z" fill="#04A550"/>
<path d="M50.9165 23.1727L30.3971 54.7222C30.3118 54.7519 30.2228 54.772 30.1327 54.7815C30.0449 54.7934 29.9549 54.7934 29.8672 54.7815C29.7771 54.772 29.6882 54.7519 29.6028 54.7222L9.0835 23.1727L16.4129 8.31586H43.5872L50.9165 23.1727Z" fill="#C2FFC2"/>
<path d="M50.9165 23.1727L30.3971 54.7222C30.3118 54.7519 30.2228 54.772 30.1327 54.7815C30.0449 54.7934 29.9549 54.7934 29.8672 54.7815C29.7771 54.772 29.6882 54.7519 29.6028 54.7222L9.0835 23.1727H50.9165Z" fill="#29E088"/>
<path d="M50.9163 23.1731L30.3969 54.7228C30.3116 54.7525 30.2226 54.7726 30.1325 54.7821C30.0447 54.794 29.9547 54.794 29.867 54.7821C29.7768 54.7726 29.688 54.7525 29.6026 54.7228L23.9873 46.0895C34.6873 41.8125 42.3748 34.3125 44.6248 23.1731H50.9163Z" fill="#0CC166"/>
<path d="M37.7724 23.1727L30.1325 54.7816C30.0447 54.7935 29.9547 54.7935 29.867 54.7816L22.2271 23.1727L24.9511 8.31586H35.0484L37.7724 23.1727Z" fill="#79FF79"/>
<path d="M37.7724 23.1727L30.1325 54.7816C30.0447 54.7935 29.9547 54.7935 29.867 54.7816L22.2271 23.1727H37.7724Z" fill="#0CC166"/>
<path d="M25.7446 12.3748H13.2554C12.355 12.3748 11.625 11.4515 11.625 10.3123C11.625 9.17332 12.3549 8.24985 13.2554 8.24985H25.7446C26.645 8.24985 27.375 9.1732 27.375 10.3123C27.3749 11.4514 26.645 12.3748 25.7446 12.3748Z" fill="#C2FFC2"/>
<path d="M24.9513 8.31633L24.2305 12.246H14.4746L16.4128 8.31633H24.9513Z" fill="#EEFFEE"/>
<path d="M33.267 41.8161L30.1328 54.7821C30.045 54.7939 29.955 54.7939 29.8672 54.7821L27.4893 44.9456C29.5436 44.124 31.4805 43.0703 33.267 41.8161Z" fill="#04A550"/>
<path d="M50.9165 23.1731H39.0269C42.6578 22.4571 45.9164 20.7075 48.484 18.2431L50.9165 23.1731Z" fill="#79FF79"/>
<path d="M37.7496 2.49893C37.7496 2.49893 40.9231 12.0089 27.3222 18.3967C19.9318 21.8666 15.7225 30.0101 22.5 43.7489C23.0612 37.6079 24.001 24.8182 34.3499 21.7284C34.3499 21.7284 24.8507 26.1302 23.9998 46.1009C28.9492 46.9521 40.0001 46.2489 43.8703 35.195C48.4212 18.8924 37.7496 2.49893 37.7496 2.49893Z" fill="#068643"/>
<path d="M24.0001 46.1009C34.5072 40.9643 44.0625 31.8987 44.0625 19.8982C43.125 10.8978 37.7499 2.49893 37.7499 2.49893C37.7499 2.49893 40.9233 12.0089 27.3225 18.3967C19.9321 21.8666 15.7227 30.0101 22.5001 43.7489C23.0614 37.6079 24.0013 24.8182 34.3502 21.7284C34.3502 21.7284 24.8745 26.2024 24.0001 46.1009Z" fill="url(#paint0_linear_7933_16629)"/>
<defs>
<linearGradient id="paint0_linear_7933_16629" x1="31.2398" y1="10.8978" x2="31.2398" y2="44.8993" gradientUnits="userSpaceOnUse">
<stop stop-color="#11D673"/>
<stop offset="0.331608" stop-color="#D1FFC5"/>
<stop offset="0.951923" stop-color="#048A43"/>
</linearGradient>
</defs>
</svg>
